<svg width="64" height="128" xmlns="http://www.w3.org/2000/svg">
 <title>recuperator</title>

 <g>
  <title>Layer 1</title>
  <path stroke="#000000" d="m10.12476,127.15938l43.35307,0c5.13071,0 9.28995,-8.4774 9.28995,-18.93483l0,-88.36259c0,-10.45743 -4.15924,-18.93483 -9.28995,-18.93483l-43.35307,0c-5.13071,0 -9.28995,8.4774 -9.28995,18.93483l0,88.36259c0,10.45745 4.15924,18.93483 9.28995,18.93483z" fill="none" stroke-width="2" id="svg_13"/>
  <g id="svg_3"/>
  <g stroke="null" id="svg_12">
   <line stroke="#000" id="svg_2" y2="125.3914" x2="31.39594" y1="61.93991" x1="1.67965" fill="none" stroke-width="2"/>
   <line stroke="#000" id="svg_4" y2="62.6518" x2="61.32312" y1="1.08624" x1="31.64712" fill="none" stroke-width="2"/>
   <line stroke="#000" id="svg_5" y2="-0.65172" x2="32.16409" y1="64.6623" x1="1.47808" fill="none" stroke-width="2"/>
   <line stroke="#000" id="svg_6" y2="58.88071" x2="63.54466" y1="127.17549" x1="31.22906" fill="none" stroke-width="2"/>
   <line stroke="#000" id="svg_7" y2="70.75436" x2="7.58009" y1="10.99991" x1="36.05849" fill="none"/>
   <line stroke="#000" id="svg_8" y2="81.62384" x2="12.27381" y1="21.86935" x1="40.75221" fill="none"/>
   <line stroke="#000" id="svg_9" y2="92.76482" x2="17.74214" y1="33.01033" x1="46.22055" fill="none"/>
   <line stroke="#000" id="svg_10" y2="104.63384" x2="22.82823" y1="44.87939" x1="51.30664" fill="none"/>
   <line stroke="#000" id="svg_11" y2="115.27508" x2="27.91432" y1="55.52059" x1="56.39271" fill="none"/>
  </g>
 </g>
</svg>