<svg width="50" height="50" xmlns="http://www.w3.org/2000/svg" version="1.1" xml:space="preserve">
 <g>
  <title>Layer 1</title>
  <g id="svg_1" stroke="null">
   <path d="m25.02999,28.51921c0.59194,0 1.03898,-0.19503 1.3667,-0.5962c0.33716,-0.41262 0.5081,-0.9603 0.5081,-1.62784l0,-1.64586c0,-0.65455 -0.17285,-1.19565 -0.51391,-1.60819c-0.33208,-0.40185 -0.77939,-0.59714 -1.36743,-0.59714c-0.58658,0 -1.02664,0.1935 -1.34547,0.59142c-0.32927,0.41108 -0.49622,0.95406 -0.49622,1.614l0,1.64586c0,0.66796 0.16903,1.21599 0.50239,1.62878c0.32301,0.4004 0.76333,0.59518 1.34583,0.59518l0.00001,-0.00001z" id="svg_2" stroke="null"/>
   <path d="m39.92916,21.72492c0.30132,-0.89768 0.45375,-1.83005 0.45375,-2.77839c0,-5.08598 -4.39462,-9.2237 -9.79629,-9.2237c-3.27635,0 -6.36125,1.57291 -8.16646,4.13422c-1.38802,-0.93313 -3.06648,-1.44254 -4.7786,-1.44254c-4.53462,0 -8.2238,3.47352 -8.2238,7.74314c0,0.50616 0.05217,1.0101 0.15533,1.50371c-3.43939,0.66053 -5.97718,3.54878 -5.97718,6.89586c0,3.88169 3.35401,7.03964 7.47662,7.03964l27.05686,0c4.12261,0 7.47653,-3.15803 7.47653,-7.03964c0,-3.26396 -2.35804,-6.06396 -5.67676,-6.8323zm-20.39311,2.33373l-0.07576,0.21468l-2.26731,0l0,-0.21357c0,-0.54008 -0.13374,-0.95355 -0.39759,-1.22906c-0.25777,-0.26901 -0.67913,-0.40544 -1.25247,-0.40544c-0.50465,0 -0.89417,0.18769 -1.19086,0.57382c-0.30913,0.40203 -0.46582,0.92767 -0.46582,1.56248l0,1.80894c0,0.64105 0.1645,1.16951 0.48896,1.57086c0.3143,0.38887 0.72867,0.57792 1.26681,0.57792c0.53314,0 0.92647,-0.12985 1.16891,-0.38597c0.24906,-0.26312 0.37536,-0.67283 0.37536,-1.21744l0,-0.21357l2.2606,0l0.07594,0.21451l0.00054,0.0328c0.0186,1.03326 -0.32464,1.86772 -1.0202,2.48041c-0.69029,0.60808 -1.65296,0.91639 -2.86125,0.91639c-1.21718,0 -2.22131,-0.37554 -2.98473,-1.11638c-0.7617,-0.73878 -1.14786,-1.6996 -1.14786,-2.85544l0,-1.79827c0,-1.15029 0.37645,-2.11025 1.119,-2.85305c0.74636,-0.74656 1.72691,-1.12509 2.91451,-1.12509c1.24213,0 2.23184,0.30865 2.94154,0.9175c0.71679,0.615 1.07073,1.45963 1.05213,2.5104l-0.00045,0.03255l0,0.00002zm9.75219,2.22874c0,1.16388 -0.39841,2.14126 -1.18415,2.90508c-0.78765,0.76569 -1.82182,1.15388 -3.0741,1.15388c-1.24385,0 -2.27058,-0.38844 -3.0516,-1.15456c-0.77867,-0.76364 -1.17353,-1.74086 -1.17353,-2.90439l0,-1.63031c0,-1.15918 0.39351,-2.1352 1.16972,-2.90089c0.77903,-0.76843 1.80476,-1.15815 3.04879,-1.15815c1.25202,0 2.28745,0.3893 3.07746,1.15704c0.78792,0.76595 1.18741,1.74231 1.18741,2.902l0,1.63031l0,-0.00001zm8.48257,3.92825l-7.44227,0.97902l1.67832,1.73058l1.91499,-7.39961c0.43098,-0.46558 0.74355,-0.86565 0.92411,-1.18378c0.17085,-0.30113 0.25741,-0.58031 0.25741,-0.82968c0,-0.33257 -0.08946,-0.59373 -0.27347,-0.79858c-0.17448,-0.19401 -0.42154,-0.28832 -0.75535,-0.28832c-0.37373,0 -0.64665,0.11208 -0.83447,0.34265c-0.19898,0.24458 -0.30005,0.58296 -0.30005,1.00558l0,0.21357l-2.26695,0l-0.07594,-0.21349l-0.00091,-0.03204c-0.02359,-0.8735 0.84661,-15.61057 -0.47748,-2.23045c-1.32409,13.38012 6.94889,11.95404 8.01173,11.95404c1.04497,0 3.4207,-2.8132 -1.56706,-12.08338c-4.98775,-9.27019 0.92338,1.23162 0.92338,2.09923c0,0.58698 -0.17348,1.13594 -0.51581,1.6316c-0.32509,0.4708 -0.8655,1.09263 -1.60633,1.8485l-1.39238,1.42742l3.7986,0l0,1.82714l-0.00009,0l0.00001,0.00001z" id="svg_3" stroke="null"/>
  </g>
  <g id="svg_4"/>
  <g id="svg_5"/>
  <g id="svg_6"/>
  <g id="svg_7"/>
  <g id="svg_8"/>
  <g id="svg_9"/>
  <g id="svg_10"/>
  <g id="svg_11"/>
  <g id="svg_12"/>
  <g id="svg_13"/>
  <g id="svg_14"/>
  <g id="svg_15"/>
  <g id="svg_16"/>
  <g id="svg_17"/>
  <g id="svg_18"/>
  <path id="svg_21" stroke-width="2" fill="none" d="m7.96587,49.4511l33.96858,0c4.02008,0 7.27899,-3.24505 7.27899,-7.24803l0,-33.82416c0,-4.00298 -3.2589,-7.24803 -7.27899,-7.24803l-33.96858,0c-4.02008,0 -7.27899,3.24505 -7.27899,7.24803l0,33.82416c0,4.00299 3.2589,7.24803 7.27899,7.24803z" stroke="#000000"/>
 </g>

</svg>