<svg width="32" height="32" xmlns="http://www.w3.org/2000/svg" fill="none">
 <title>electric</title>

 <g>
  <title>Layer 1</title>
  <g stroke="null" id="svg_8">
   <path stroke="#000000" id="svg_1" stroke-width="2" fill="none" d="m5.19327,31.27797l21.5417,0c2.54939,0 4.61608,-2.03774 4.61608,-4.55142l0,-21.23997c0,-2.51368 -2.06668,-4.55142 -4.61608,-4.55142l-21.5417,0c-2.54939,0 -4.61608,2.03774 -4.61608,4.55142l0,21.23997c0,2.51369 2.06668,4.55142 4.61608,4.55142z"/>
   <path stroke="#000000" id="svg_2" fill="#000000" d="m24.15762,4.5228l-2.0484,0l0,6.03167l2.0484,0l0,-6.03167z"/>
   <path stroke="#000000" id="svg_3" fill="#000000" d="m26.20597,8.54387l0,-2.01056l-6.1451,0l0,2.01056l6.1451,0z"/>
   <path stroke="#000000" id="svg_4" fill="#000000" d="m10.68919,26.71257c-0.12288,0.22484 -0.36032,0.36255 -0.62027,0.36255c-0.42675,0 -0.75581,-0.36914 -0.69905,-0.78432l0.96564,-7.06845c0.08234,-0.60287 -0.39536,-1.1389 -1.01505,-1.1389l-3.12873,0c-1.08095,0 -0.40538,-0.96338 -0.3808,-1.00192c1.55131,-2.86705 3.86775,-7.11283 6.9494,-12.76145c0.12279,-0.22498 0.36216,-0.36636 0.6222,-0.36636c0.4267,0 0.75567,0.36905 0.69896,0.78418l-0.96568,7.06862c-0.08234,0.60287 0.39536,1.13885 1.0151,1.13885l3.141,0c0.49133,0 0.76156,0.24404 0.49133,0.84782c-4.05081,7.38865 -6.40641,11.69763 -7.07403,12.91936z"/>
  </g>
 </g>
</svg>