<svg width="50.00000000000001" height="100.00000000000001" xmlns="http://www.w3.org/2000/svg" xml:space="preserve" version="1.1">
 <g>
  <title>Layer 1</title>
  <g transform="rotate(-90.1313 29.1102 19.7515)" id="svg_1" stroke="null">
   <path id="svg_2" d="m29.11019,32.68351l8.7335,-12.93197l-5.45844,0l0,-12.93192l-6.55013,-0.00005l0,12.93197l-5.45844,0l8.7335,12.93197l0.00001,0z" stroke="null"/>
  </g>
  <g id="svg_3"/>
  <g id="svg_4"/>
  <g id="svg_5"/>
  <g id="svg_6"/>
  <g id="svg_7"/>
  <g id="svg_8"/>
  <g id="svg_9"/>
  <g id="svg_10"/>
  <g id="svg_11"/>
  <g id="svg_12"/>
  <g id="svg_13"/>
  <g id="svg_14"/>
  <g id="svg_15"/>
  <g id="svg_16"/>
  <g id="svg_17"/>
  <g transform="rotate(-90.1313 29.1102 76.9355)" id="svg_24" stroke="null">
   <path id="svg_23" d="m29.11019,89.86753l8.73351,-12.93197l-5.45844,0l0,-12.93193l-6.55013,-0.00005l0,12.93198l-5.45844,0l8.7335,12.93197z" stroke="null"/>
  </g>
  <g id="svg_26" stroke="null">
   <path id="svg_25" d="m24.64204,62.024l8.73351,-12.93197l-5.45844,0l0,-12.93193l-6.55013,-0.00005l0,12.93198l-5.45844,0l8.7335,12.93197z" stroke="null"/>
  </g>
  <rect id="svg_19" height="98.88489" width="48.46752" y="0.41736" x="0.76624" stroke-width="2" stroke="#000000" fill="none"/>
  <rect id="svg_20" height="0.5571" width="0" y="62.25524" x="73.46752" stroke-width="2" stroke="#000000" fill="none"/>
 </g>

</svg>