<svg width="50" height="50" xmlns="http://www.w3.org/2000/svg" fill="none">

 <g>
  <title>Layer 1</title>
  <path id="svg_1" fill="#000000" d="m11.0417,7.70834c-0.8334,2.08334 -2.29169,4.37496 -3.54169,5.20836c-1.45833,1.25 -1.25,2.2916 0.83333,3.75c2.70836,1.875 2.70836,2.2916 0,4.1666c-2.70833,1.875 -2.70833,2.2917 0,4.1667c2.70836,1.875 2.70836,2.2917 0,4.1667c-2.29166,1.4583 -2.5,2.5 -0.83333,3.5416c1.45833,1.0417 2.91669,3.9584 3.12499,6.875c0.8333,4.7917 1.6667,5.2084 13.9583,5.8334c11.875,0.625 13.3334,0.2083 14.375,-3.75c0.625,-2.2917 1.875,-4.1667 2.9167,-4.1667c4.1667,0 1.4583,-3.75 -4.375,-6.25c-5,-2.0833 -7.5,-2.0833 -12.5,0c-3.5417,1.4583 -6.25,3.5417 -6.25,4.5833c0,1.25 1.6667,1.4584 3.75,0.625c9.1667,-3.9583 12.9167,-3.75 12.9167,0.8334c0,3.9583 -1.25,4.375 -10.4167,4.375l-10.4167,0l0,-16.6667l0,-16.66666l10.4167,0c11.25,0 13.9583,2.91666 4.7917,4.79166c-7.0834,1.6667 -12.5,5 -10.8334,6.6667c0.8334,0.625 3.75,0 6.875,-1.25c4.1667,-2.0834 6.6667,-2.0834 10.8334,0c5.625,2.5 10,1.25 5.625,-1.4584c-1.25,-0.8333 -2.7084,-3.75 -2.9167,-6.6666c-0.8333,-4.79169 -1.6667,-5.20836 -13.9583,-5.83336c-10.8334,-0.41666 -13.125,0 -14.375,3.125z"/>
  <path id="svg_2" fill="#000000" d="m23.5417,23.3334c-5.625,2.7083 -6.6667,7.0833 -1.0417,4.5833c4.5834,-2.0833 12.9167,-2.0833 17.7084,0c1.875,1.0417 3.5416,0.8333 3.5416,-0.2083c0,-2.2917 -9.1666,-6.875 -13.125,-6.6667c-1.4583,0 -4.5833,1.0417 -7.0833,2.2917z"/>
  <path id="svg_7" stroke-width="2" fill="none" d="m7.85618,49.25538l33.96858,0c4.02008,0 7.27899,-3.24505 7.27899,-7.24803l0,-33.82416c0,-4.00298 -3.2589,-7.24803 -7.27899,-7.24803l-33.96858,0c-4.02008,0 -7.27899,3.24505 -7.27899,7.24803l0,33.82416c0,4.00299 3.2589,7.24803 7.27899,7.24803z" stroke="#000000"/>
 </g>
</svg>