<svg width="50.00000000000001" height="50.00000000000001" xmlns="http://www.w3.org/2000/svg" fill="none">
 <title>electric</title>

 <g>
  <title>Layer 1</title>
  <g id="svg_8">
   <path stroke="#000000" d="m7.85618,49.25538l33.96858,0c4.02008,0 7.27899,-3.24505 7.27899,-7.24803l0,-33.82416c0,-4.00298 -3.2589,-7.24803 -7.27899,-7.24803l-33.96858,0c-4.02008,0 -7.27899,3.24505 -7.27899,7.24803l0,33.82416c0,4.00299 3.2589,7.24803 7.27899,7.24803z" fill="none" stroke-width="2" id="svg_8"/>
   <g id="svg_12" stroke="null">
    <path id="svg_9" fill="#000000" d="m11.59944,6.25076c-0.65873,0.33458 -1.98446,2.23888 -2.89335,4.15186c-0.90881,1.92151 -1.30072,3.4827 -1.30072,5.23265c0,1.99011 0.54201,3.32836 2.13456,5.23265c0.35024,0.42032 0.74206,0.98654 0.85886,1.24382c0.20005,0.42892 0.22507,0.56622 0.21679,1.41546c-0.00837,0.75481 -0.0584,1.098 -0.23352,1.71561c-0.30849,1.08088 -1.22566,2.95943 -2.12619,4.34915c-0.82548,1.27808 -0.95055,1.6384 -0.82548,2.26461c0.11673,0.55761 0.64199,1.098 1.19237,1.21808c0.68374,0.15442 1.15898,-0.03435 1.74265,-0.68621c1.0923,-1.21817 2.368,-3.52565 2.9684,-5.37855c0.45022,-1.37251 0.60869,-2.45338 0.55866,-3.74007c-0.07505,-1.87003 -0.58367,-3.02812 -2.21798,-5.00962c-0.79209,-0.96932 -0.93383,-1.29529 -0.99223,-2.23036c-0.0917,-1.73274 0.76708,-3.9717 2.56813,-6.69098c0.71704,-1.08079 0.83384,-1.4325 0.67537,-2.04159c-0.26682,-1.01222 -1.39242,-1.51833 -2.32633,-1.04653l0.00001,0.00002z" stroke="null"/>
    <path id="svg_10" fill="#000000" d="m21.60515,6.16498c-0.48361,0.1973 -1.07556,0.90068 -2.04277,2.39335c-1.07565,1.67266 -1.88447,3.67999 -2.18459,5.42994c-0.20014,1.14948 -0.14173,2.84796 0.12509,3.70572c0.37517,1.20095 0.85878,2.03307 1.95107,3.34549c0.30849,0.37745 0.66709,0.90072 0.79218,1.15809c0.20005,0.42892 0.21679,0.55761 0.20842,1.50119c-0.00837,0.85776 -0.04167,1.158 -0.23344,1.80143c-0.41692,1.41537 -1.07565,2.63345 -2.69322,4.97528c-0.50034,0.72916 -0.43366,1.52693 0.17503,2.15314c0.57539,0.60048 1.40087,0.69482 2.05951,0.24876c0.63371,-0.42032 2.00119,-2.40191 2.74325,-3.94597c0.89225,-1.87864 1.3008,-3.6972 1.22575,-5.52437c-0.06668,-1.68126 -0.51699,-2.88222 -1.61757,-4.28907c-1.55097,-1.97298 -1.56762,-2.01585 -1.55925,-3.4827c0,-0.84924 0.0333,-1.03792 0.30849,-1.87003c0.49197,-1.49258 1.47583,-3.41409 2.39301,-4.65791c0.42529,-0.58335 0.58367,-0.9608 0.58367,-1.38111c-0.00828,-0.62621 -0.48361,-1.35536 -1.02553,-1.56124c-0.28355,-0.11151 -0.94228,-0.11151 -1.2091,0l0,0.00001z" stroke="null"/>
    <path id="svg_11" fill="#000000" d="m31.37751,6.21644c-0.43357,0.25735 -0.49197,0.30883 -0.95056,0.88357c-1.60092,1.99872 -2.84332,4.70939 -3.21021,6.99122c-0.43357,2.68493 0.15847,4.6493 2.06788,6.93974c0.95056,1.14087 1.01725,1.31242 1.01725,2.6678c-0.00837,1.05505 -0.02502,1.16661 -0.30849,2.03298c-0.48361,1.43259 -1.0923,2.59059 -2.14293,4.05752c-0.69202,0.96071 -0.68374,0.94358 -0.76708,1.31242c-0.2418,1.10661 0.78381,2.22175 1.86774,2.04159c0.50862,-0.08573 0.76708,-0.26589 1.31745,-0.92645c1.10058,-1.31242 2.27629,-3.43122 2.77655,-4.9925c0.35852,-1.11513 0.55866,-2.29035 0.55866,-3.34549c0.01665,-2.10158 -0.47524,-3.36262 -2.08453,-5.32699c-0.38354,-0.47179 -0.79209,-1.07227 -0.91718,-1.32964c-0.19177,-0.42892 -0.21679,-0.56613 -0.2085,-1.45824c0.00837,-0.80637 0.05003,-1.12374 0.23352,-1.75856c0.30849,-1.08088 1.23403,-2.95943 2.10954,-4.33194c0.41692,-0.63482 0.79209,-1.24382 0.84213,-1.34677c0.12509,-0.23164 0.12509,-0.88359 0.00837,-1.20095c-0.11672,-0.32598 -0.55866,-0.78921 -0.88388,-0.93503c-0.37517,-0.16299 -1.01725,-0.15441 -1.32573,0.02573l0,-0.00001z" stroke="null"/>
   </g>
  </g>
  <path stroke="null" d="m39.27579,45.26448c-0.10066,0.2478 -0.29519,0.39957 -0.50816,0.39957c-0.34961,0 -0.61919,-0.40683 -0.57269,-0.86441l0.7911,-7.79023c0.06746,-0.66443 -0.3239,-1.25519 -0.83158,-1.25519l-2.56321,0c-0.88557,0 -0.3321,-1.06176 -0.31198,-1.10423c1.27091,-3.15981 3.16865,-7.83915 5.69329,-14.06457c0.1006,-0.24795 0.29671,-0.40378 0.50974,-0.40378c0.34958,0 0.61909,0.40674 0.57262,0.86426l-0.79113,7.79042c-0.06746,0.66443 0.3239,1.25515 0.83162,1.25515l2.57326,0c0.40252,0 0.62391,0.26896 0.40252,0.93439c-3.31862,8.14313 -5.24845,12.89212 -5.79539,14.2386l-0.00001,0z" fill="#000000" id="svg_4"/>
 </g>
</svg>