<svg width="50" height="50" xmlns="http://www.w3.org/2000/svg" fill="none">
 <title>humdity</title>
 <defs>
  <clipPath id="clip0_49_81">
   <rect id="svg_1" fill="white" height="50" width="40"/>
  </clipPath>
 </defs>
 <g>
  <title>Layer 1</title>
  <path stroke="#000000" d="m8.1138,49.24735l33.96858,0c4.02008,0 7.27899,-3.24505 7.27899,-7.24803l0,-33.82416c0,-4.00298 -3.2589,-7.24803 -7.27899,-7.24803l-33.96858,0c-4.02008,0 -7.27899,3.24505 -7.27899,7.24803l0,33.82416c0,4.00299 3.2589,7.24803 7.27899,7.24803z" fill="none" stroke-width="2" id="svg_12"/>
  <g stroke="null" id="svg_9">
   <path stroke="#000000" id="svg_4" fill="#000000" d="m10.28997,28.00501c-3.10328,4.88631 -3.63527,6.7777 -2.39396,9.45732c1.95064,4.09808 7.80255,4.01925 9.75318,-0.15765c0.97531,-1.89151 0.88665,-2.83715 -0.35467,-5.67442c-0.79799,-1.81257 -2.21663,-4.1769 -3.10328,-5.20148l-1.59597,-1.89139l-2.3053,3.46761zm4.69926,2.28551c2.92595,5.12266 2.0393,8.66921 -2.21664,8.66921c-4.25593,0 -5.14257,-3.54656 -2.21663,-8.66921c0.97531,-1.73387 1.95064,-3.15244 2.21663,-3.15244c0.266,0 1.24131,1.41857 2.21664,3.15244z"/>
   <path stroke="#000000" id="svg_5" fill="#000000" d="m35.81631,28.24798c-3.10328,4.88631 -3.63531,6.7777 -2.394,9.45732c1.95072,4.09808 7.80265,4.01925 9.75324,-0.15765c0.9753,-1.89151 0.88667,-2.83715 -0.35464,-5.67442c-0.79804,-1.81257 -2.21661,-4.1769 -3.10328,-5.20148l-1.59596,-1.89139l-2.30537,3.46761zm4.69924,2.28551c2.92602,5.12266 2.03935,8.66921 -2.21661,8.66921c-4.25597,0 -5.14251,-3.54656 -2.21661,-8.66921c0.9753,-1.73387 1.9506,-3.15244 2.21661,-3.15244c0.26601,0 1.24131,1.41857 2.21661,3.15244z"/>
   <path stroke="#000000" id="svg_6" fill="#000000" d="m22.48391,10.07789c-3.10328,4.88619 -3.63531,6.7777 -2.394,9.4572c1.95072,4.0982 7.80265,4.01937 9.75324,-0.15765c0.9753,-1.89139 0.88667,-2.83715 -0.35464,-5.6743c-0.79804,-1.81269 -2.21661,-4.1769 -3.10328,-5.20148l-1.59596,-1.89151l-2.30537,3.46773zm4.69924,2.28551c2.92602,5.12266 2.03935,8.66909 -2.21661,8.66909c-4.25597,0 -5.14251,-3.54644 -2.21661,-8.66909c0.9753,-1.73387 1.9506,-3.15244 2.21661,-3.15244c0.26601,0 1.24131,1.41857 2.21661,3.15244z"/>
  </g>
 </g>
</svg>