<svg width="50" height="50" xmlns="http://www.w3.org/2000/svg" xml:space="preserve" version="1.1">
 <g>
  <title>Layer 1</title>
  <g stroke="null" id="svg_1">
   <path stroke="null" id="svg_2" d="m29.51099,9.88183c-0.31083,-0.44287 -0.90601,-0.53816 -1.32916,-0.21261c-0.42315,0.32555 -0.51404,0.94852 -0.20321,1.39153c6.91848,9.85627 8.37074,16.39584 8.37074,20.14626c0,3.67503 -1.04862,7.0066 -2.9528,9.38102c-2.22085,2.76925 -5.44747,4.17338 -9.59012,4.17338c-9.25799,0 -12.54292,-7.30176 -12.54292,-13.5544c0,-6.93135 3.56256,-13.70078 6.55124,-18.15937c3.27796,-4.89018 6.60587,-8.15074 6.63883,-8.18286c0.38474,-0.37413 0.4068,-1.00399 0.04944,-1.40679c-0.35736,-0.40266 -0.959,-0.42588 -1.34361,-0.05176c-0.14071,0.13683 -3.48574,3.41053 -6.87767,8.46262c-3.15665,4.70186 -6.91975,11.87342 -6.91975,19.33802c0,4.12242 1.22623,7.90973 3.45265,10.66411c2.58112,3.19327 6.38213,4.88115 10.99179,4.88115c4.6643,0 8.48407,-1.68894 11.04643,-4.88407c2.19131,-2.73235 3.39814,-6.5186 3.39814,-10.66106c-0.00013,-7.33454 -4.75291,-15.64507 -8.74001,-21.32517z"/>
   <path stroke="null" id="svg_3" d="m28.13227,22.80145l-12.06349,12.6295c-0.3713,0.38872 -0.3713,1.01899 0,1.40758c0.18571,0.1943 0.42911,0.29158 0.67238,0.29158s0.48666,-0.09715 0.67238,-0.29158l12.06349,-12.6295c0.3713,-0.38872 0.3713,-1.01899 0,-1.40758c-0.37156,-0.38872 -0.97345,-0.38872 -1.34475,0z"/>
   <path stroke="null" id="svg_4" d="m27.31271,30.73162c-1.685,0 -3.05587,1.43519 -3.05587,3.19925s1.37087,3.19925 3.05587,3.19925s3.05587,-1.43519 3.05587,-3.19925s-1.37087,-3.19925 -3.05587,-3.19925zm0,4.40776c-0.6365,0 -1.15435,-0.54214 -1.15435,-1.20851s0.51785,-1.20851 1.15435,-1.20851s1.15435,0.54214 1.15435,1.20851s-0.51785,1.20851 -1.15435,1.20851z"/>
   <path stroke="null" id="svg_5" d="m18.84627,28.9085c1.685,0 3.05587,-1.43519 3.05587,-3.19925s-1.37087,-3.19925 -3.05587,-3.19925s-3.05587,1.43519 -3.05587,3.19925s1.37087,3.19925 3.05587,3.19925zm0,-4.40789c0.6365,0 1.15435,0.54214 1.15435,1.20851s-0.51785,1.20851 -1.15435,1.20851c-0.6365,0 -1.15435,-0.54214 -1.15435,-1.20851s0.51772,-1.20851 1.15435,-1.20851z"/>
  </g>
  <g id="svg_6"/>
  <g id="svg_7"/>
  <g id="svg_8"/>
  <g id="svg_9"/>
  <g id="svg_10"/>
  <g id="svg_11"/>
  <g id="svg_12"/>
  <g id="svg_13"/>
  <g id="svg_14"/>
  <g id="svg_15"/>
  <g id="svg_16"/>
  <g id="svg_17"/>
  <g id="svg_18"/>
  <g id="svg_19"/>
  <g id="svg_20"/>
  <path stroke="#000000" d="m8.25614,49.18995l33.96858,0c4.02008,0 7.27899,-3.24505 7.27899,-7.24803l0,-33.82416c0,-4.00298 -3.2589,-7.24803 -7.27899,-7.24803l-33.96858,0c-4.02008,0 -7.27899,3.24505 -7.27899,7.24803l0,33.82416c0,4.00299 3.2589,7.24803 7.27899,7.24803z" fill="none" stroke-width="2" id="svg_21"/>
 </g>
</svg>
