<svg width="50" height="50" xmlns="http://www.w3.org/2000/svg" fill="none">
 <title>smesh</title>
 <defs>
  <clipPath id="clip0_51_101">
   <rect id="svg_1" fill="white" height="50" width="50"/>
  </clipPath>
  <clipPath id="clip1_51_101">
   <rect id="svg_2" x="1" y="0" fill="white" height="50" width="50"/>
  </clipPath>
 </defs>
 <g>
  <title>Layer 1</title>
  <path id="svg_4" fill="#000000" d="m21.77621,5.56473c-0.4851,1.17308 -2.3952,1.9456 -6.5792,2.63228c-3.6685,0.57224 -5.1541,1.14447 -6.00306,2.23174c-1.15211,1.5164 -1.48561,6.7523 -0.51542,8.2402c1.00048,1.5164 2.60738,-0.0287 3.00158,-2.8612c0.1212,-1.03 0.3941,-2.1459 0.576,-2.4606c0.758,-1.3448 3.3351,-1.9742 6.1244,-1.4878c2.3042,0.4005 3.2138,0.9442 3.4563,2.0314c0.3032,1.3161 1.1824,1.03 3.517,-1.0872c2.3345,-2.1173 2.668,-2.7754 2.001,-3.97708c-0.8186,-1.4592 -4.0324,-4.12009 -4.9722,-4.12009c-0.1516,0 -0.4245,0.40057 -0.6064,0.85835z"/>
  <path id="svg_5" fill="#000000" d="m33.66111,8.36874c-1.2127,0.40056 -1.7282,0.82974 -1.6372,1.34475c0.2122,0.91556 1.6069,1.60226 3.7898,1.85976c1.1521,0.1431 2.3346,0.3433 2.6074,0.4292c0.9702,0.3719 1.2431,1.7739 1.3037,6.9526c0.0607,5.6938 0.3638,7.0671 1.7585,7.7824c0.8186,0.4006 0.8792,0.4006 1.5766,-0.3719c1.1218,-1.1731 1.4856,-2.8612 1.4553,-6.638c0,-6.1229 -1.334,-9.6993 -3.9718,-10.78658c-1.4553,-0.60084 -5.7302,-0.9728 -6.8823,-0.57223z"/>
  <path id="svg_6" fill="#000000" d="m8.61789,23.61875c-0.57605,0.2575 -1.63721,1.0873 -2.33454,1.8026c-1.7888,1.8311 -2.30421,3.3189 -1.1521,3.3189c1.21274,0 2.36485,2.3462 2.91059,5.8941c0.8186,5.3217 1.57657,6.3804 5.00257,6.9812c3.5473,0.6295 6.943,0 6.7611,-1.2589c-0.1516,-0.9156 -1.5463,-1.6309 -3.6383,-1.8884c-1.0914,-0.1144 -2.2739,-0.3719 -2.6074,-0.5436c-1.4553,-0.7439 -2.0616,-3.1187 -1.5462,-5.9226c0.3941,-2.0887 1.243,-3.2618 2.3951,-3.2618c0.4548,0 0.6064,-0.1716 0.6064,-0.7725c0,-0.5722 -0.5154,-1.2589 -2.0617,-2.6609c-1.1217,-1.0586 -2.3042,-1.9742 -2.668,-2.06c-0.3335,-0.0858 -1.09147,0.0858 -1.66752,0.3719z"/>
  <path id="svg_7" fill="#000000" d="m41.30141,31.25805c-0.667,0.6867 -1.1218,1.917 -1.1218,3.0901c0,3.1187 -2.4862,4.5207 -6.7914,3.8054c-2.1526,-0.3434 -3.517,-1.2303 -3.517,-2.2604c0,-1.1444 -1.243,-0.658 -3.3957,1.3734c-2.759,2.6037 -2.759,2.9756 0.0304,5.5507c2.2435,2.0886 3.0621,2.3461 3.6079,1.2589c0.4548,-0.9442 2.7893,-1.7167 6.8217,-2.2889c4.9419,-0.6867 5.9424,-1.3734 6.5791,-4.6351c0.8489,-4.2346 -0.4548,-7.7252 -2.2132,-5.8941z"/>
  <path stroke="#000000" d="m8.1138,49.24735l33.96858,0c4.02008,0 7.27899,-3.24505 7.27899,-7.24803l0,-33.82416c0,-4.00298 -3.2589,-7.24803 -7.27899,-7.24803l-33.96858,0c-4.02008,0 -7.27899,3.24505 -7.27899,7.24803l0,33.82416c0,4.00299 3.2589,7.24803 7.27899,7.24803z" fill="none" stroke-width="2" id="svg_12"/>
 </g>
</svg>