<svg width="50" height="50" xmlns="http://www.w3.org/2000/svg" stroke-linejoin="round" stroke-linecap="round" fill="none" stroke="currentColor" stroke-width="2" class="icon icon-tabler icon-tabler-wind">

 <g>
  <title>Layer 1</title>
  <g stroke="null" id="svg_5">
   <path stroke="null" id="svg_2" d="m10.9947,18.1366l16.97748,0a4.99338,4.3377 0 1 0 -4.6738,-5.62166"/>
   <path stroke="null" id="svg_3" d="m7,25.07692l30.95893,0a4.99338,4.3377 0 1 1 -4.6738,5.62166"/>
   <path stroke="null" id="svg_4" d="m8.99735,32.01724l10.98543,0a4.99338,4.3377 0 1 1 -4.6738,5.62166"/>
  </g>
  <path id="svg_12" stroke-width="2" fill="none" d="m7.87225,49.24735l33.96858,0c4.02008,0 7.27899,-3.24505 7.27899,-7.24803l0,-33.82416c0,-4.00298 -3.2589,-7.24803 -7.27899,-7.24803l-33.96858,0c-4.02008,0 -7.27899,3.24505 -7.27899,7.24803l0,33.82416c0,4.00299 3.2589,7.24803 7.27899,7.24803z" stroke="#000000"/>
 </g>
</svg>