<svg width="50" height="50" xmlns="http://www.w3.org/2000/svg" fill="none">
 <title>cooler</title>
 <defs>
  <clipPath id="clip0_51_128">
   <rect width="50" height="50" fill="white" id="svg_1"/>
  </clipPath>
 </defs>
 <g>
  <title>Layer 1</title>
  <path id="svg_12" stroke-width="2" fill="none" d="m8.1138,49.24735l33.96858,0c4.02008,0 7.27899,-3.24505 7.27899,-7.24803l0,-33.82416c0,-4.00298 -3.2589,-7.24803 -7.27899,-7.24803l-33.96858,0c-4.02008,0 -7.27899,3.24505 -7.27899,7.24803l0,33.82416c0,4.00299 3.2589,7.24803 7.27899,7.24803z" stroke="#000000"/>
  <g stroke="null" id="svg_4">
   <path fill="#000000" stroke="null" id="svg_2" d="m23.77107,3.04007c-0.47518,0.05847 -0.82773,0.13758 -1.26715,0.28548c-1.30291,0.43682 -2.20729,1.18665 -2.5905,2.14284l-0.11752,0.28893l-0.02555,14.55621l-0.02555,14.55621l-0.4343,0.19261c-2.23284,1.00435 -3.64817,2.43177 -4.19488,4.24098c-0.13796,0.44714 -0.18394,1.45493 -0.09708,1.96055c0.48029,2.74132 3.5051,4.99423 7.51604,5.59272c5.05838,0.75326 10.12698,-1.32423 11.43501,-4.695c0.25547,-0.65695 0.28613,-0.84957 0.28613,-1.68194c0,-0.82206 -0.04088,-1.03531 -0.31168,-1.71634c-0.46496,-1.15913 -1.52773,-2.31483 -2.86131,-3.10592c-0.4343,-0.26141 -1.08832,-0.58817 -1.43576,-0.71887l-0.21971,-0.08255l0,-1.78169l0,-1.77825l1.66058,0l1.66058,0l0,-0.41275l0,-0.41275l-1.66058,0l-1.66058,0l0,-2.63126l0,-2.63126l1.66058,0l1.66058,0l0,-0.41275l0,-0.41275l-1.66058,0l-1.66058,0l0,-2.63126l0,-2.63126l1.66058,0l1.66058,0l0,-0.41275l0,-0.41274l-1.64525,-0.00688l-1.65036,-0.01032l-0.01533,-2.62438l-0.01022,-2.62095l1.66058,0l1.66058,0l0,-0.42994l0,-0.42995l-1.66058,0l-1.66058,0l0,-3.14031c0,-2.92363 -0.01022,-3.15752 -0.09708,-3.44644c-0.19416,-0.63976 -0.6489,-1.18665 -1.37956,-1.66819c-1.11897,-0.73262 -2.67736,-1.06282 -4.17955,-0.87708zm1.73722,1.2004c0.9657,0.20638 1.73723,0.71887 2.06934,1.37583l0.13796,0.2786l0.01533,14.83137l0.01022,14.83138l0.60291,0.23733c1.58394,0.63288 2.56496,1.31047 3.30073,2.28387c1.2978,1.7129 1.15985,3.71128 -0.36789,5.30723c-1.16496,1.22105 -2.96349,2.04654 -5.13502,2.36298c-0.76642,0.11007 -2.27883,0.11007 -3.06569,0c-2.47298,-0.35083 -4.44524,-1.37238 -5.57955,-2.89267c-1.07299,-1.44117 -1.06277,-3.25726 0.02555,-4.71907c0.72555,-0.98028 1.80365,-1.73354 3.3416,-2.3389l0.64379,-0.25109l0,-14.67315c0,-9.38656 0.02044,-14.75227 0.0511,-14.90361c0.1073,-0.48154 0.38321,-0.85645 0.90949,-1.21072c0.34233,-0.23046 0.91459,-0.45747 1.33868,-0.52626c0.12774,-0.02063 0.27591,-0.04815 0.33211,-0.05503c0.19416,-0.03096 1.12409,0.01032 1.36934,0.06191z"/>
   <path fill="#000000" stroke="null" id="svg_3" d="m22.73385,29.34925l0,6.71745l-0.39343,0.09631c-2.22773,0.52969 -3.91386,1.82641 -4.41459,3.38797c-0.16861,0.52625 -0.16861,1.3827 -0.00511,1.88831c0.62336,1.87456 2.75912,3.26758 5.52845,3.60122c0.63869,0.07567 1.71168,0.07567 2.35036,0c2.13577,-0.25797 3.97518,-1.17977 4.94087,-2.47992c0.27591,-0.36803 0.44452,-0.68791 0.58248,-1.1213c0.16861,-0.50905 0.16861,-1.3655 0,-1.88831c-0.50073,-1.56156 -2.18686,-2.85828 -4.40948,-3.38797l-0.39854,-0.09631l0,-6.71745l0,-6.7209l-1.89051,0l-1.8905,0l0,6.7209z"/>
  </g>
  <ellipse stroke-width="2" ry="4.15924" rx="3.89375" id="svg_8" cy="9.23564" cx="39.65911" stroke="#000" fill="#fcfcfc"/>
 </g>
</svg>