<svg width="50" height="50" xmlns="http://www.w3.org/2000/svg">
 <title>valve</title>

 <g>
  <title>Layer 1</title>
  <path stroke="#000000" d="m7.87225,49.24735l33.96858,0c4.02008,0 7.27899,-3.24505 7.27899,-7.24803l0,-33.82416c0,-4.00298 -3.2589,-7.24803 -7.27899,-7.24803l-33.96858,0c-4.02008,0 -7.27899,3.24505 -7.27899,7.24803l0,33.82416c0,4.00299 3.2589,7.24803 7.27899,7.24803z" fill="none" stroke-width="2" id="svg_12"/>
  <g id="svg_33">
   <line transform="rotate(-7.84002 25 25)" stroke-width="3" stroke="#000" fill="none" x1="37.39301" y1="13.2006" x2="12.60699" y2="36.79941" id="svg_30" stroke-linejoin="undefined" stroke-linecap="undefined"/>
   <ellipse stroke="#000" transform="rotate(-7.84002 25.1565 24.5607) matrix(-3.16603 0.00752658 0.00557446 4.27476 74.9484 -58.5197)" fill="#000000" cx="15.76112" cy="19.40735" id="svg_31" rx="0.85265" ry="0.62998"/>
  </g>
  <rect stroke="#000000" id="svg_35" height="34.9594" width="48.50956" y="7.5203" x="0.74522" stroke-width="2" fill="none"/>
 </g>
</svg>