<svg xmlns="http://www.w3.org/2000/svg" width="50" height="50" fill="none">
 <title>cooler</title>
 <defs>
  <clipPath id="clip0_51_128">
   <rect id="svg_1" fill="white" height="50" width="50"/>
  </clipPath>
 </defs>
 <g>
  <title>Layer 1</title>
  <path id="svg_4" fill="#ffffff" d="m24,10c0,1.3 -0.5,1.8 -1.5,1.4c-0.8,-0.4 -1.5,-0.2 -1.5,0.4c0,0.5 0.7,1.5 1.5,2.2c0.9,0.7 1.5,2.9 1.5,5.1l0,3.9l-3.4,-1.7c-2,-0.9 -3.7,-2.6 -4,-4c-0.6,-2.3 -2.6,-3.3 -2.6,-1.2c0,0.6 -0.9,0.8 -2,0.4c-2.5,-0.8 -2.6,0.3 -0.3,2.1c1.1,0.8 1.3,1.3 0.6,1.4c-0.7,0 -1.3,0.5 -1.3,1.1c0,0.7 1.1,0.9 2.7,0.6c2.5,-0.5 8.3,1.8 8.3,3.3c0,1.5 -5.8,3.8 -8.3,3.3c-1.6,-0.3 -2.7,-0.1 -2.7,0.6c0,0.6 0.6,1.1 1.3,1.1c0.7,0.1 0.5,0.6 -0.5,1.4c-2.4,1.8 -2.3,2.9 0.2,2.1c1.1,-0.4 2,-0.2 2,0.4c0,2.1 2,1.1 2.6,-1.2c0.3,-1.4 2,-3.1 4,-4l3.4,-1.7l0,3.9c0,2.2 -0.6,4.4 -1.5,5.1c-0.8,0.7 -1.5,1.7 -1.5,2.2c0,0.6 0.7,0.8 1.5,0.4c1,-0.4 1.5,0.1 1.5,1.4c0,1.1 0.5,2 1,2c0.6,0 1,-0.9 1,-2c0,-1.3 0.5,-1.8 1.5,-1.4c0.8,0.4 1.5,0.2 1.5,-0.4c0,-0.5 -0.7,-1.5 -1.5,-2.2c-0.9,-0.7 -1.5,-2.9 -1.5,-5.1l0,-3.9l3.4,1.7c2,0.9 3.7,2.6 4,4c0.6,2.3 2.6,3.3 2.6,1.2c0,-0.6 0.9,-0.8 2,-0.4c2.5,0.8 2.6,-0.3 0.3,-2.1c-1.1,-0.8 -1.3,-1.3 -0.5,-1.4c0.6,0 1.2,-0.5 1.2,-1.1c0,-0.7 -1.1,-0.9 -2.7,-0.6c-2.5,0.5 -8.3,-1.8 -8.3,-3.3c0,-1.6 5.8,-3.8 8.5,-3.2c2.7,0.5 2.9,0.4 1.6,-1.1c-1.1,-1.4 -1.1,-1.8 0.3,-2.3c2.3,-0.9 2,-2.7 -0.4,-1.9c-1.1,0.4 -2,0.2 -2,-0.4c0,-2.1 -2,-1.1 -2.6,1.2c-0.3,1.4 -2,3.1 -4,4l-3.4,1.7l0,-3.9c0,-2.2 0.6,-4.4 1.5,-5.1c0.8,-0.7 1.5,-1.7 1.5,-2.2c0,-0.6 -0.7,-0.8 -1.5,-0.4c-1,0.4 -1.5,-0.1 -1.5,-1.4c0,-1.1 -0.4,-2 -1,-2c-0.5,0 -1,0.9 -1,2z"/>
  <path stroke="#ffffff" d="m8.1138,49.24735l33.96858,0c4.02008,0 7.27899,-3.24505 7.27899,-7.24803l0,-33.82416c0,-4.00298 -3.2589,-7.24803 -7.27899,-7.24803l-33.96858,0c-4.02008,0 -7.27899,3.24505 -7.27899,7.24803l0,33.82416c0,4.00299 3.2589,7.24803 7.27899,7.24803z" fill="none" stroke-width="2" id="svg_12"/>
 </g>
</svg>