<svg xmlns="http://www.w3.org/2000/svg" width="50" height="50" fill="none">
 <title>heater</title>
 <defs>
  <clipPath id="clip0_51_119">
   <rect id="svg_1" fill="white" height="50" width="50"/>
  </clipPath>
 </defs>
 <g>
  <title>Layer 1</title>
  <path id="svg_4" fill="#ffffff" d="m14.5703,9.7754c-0.7715,0.3809 -2.3242,2.5488 -3.3887,4.7266c-1.0644,2.1875 -1.5234,3.9648 -1.5234,5.957c0,2.2656 0.6348,3.7891 2.5,5.957c0.4102,0.4785 0.8691,1.1231 1.0059,1.416c0.2343,0.4883 0.2636,0.6446 0.2539,1.6114c-0.0098,0.8593 -0.0684,1.25 -0.2735,1.9531c-0.3613,1.2305 -1.4355,3.3691 -2.4902,4.9512c-0.9668,1.455 -1.11329,1.8652 -0.9668,2.5781c0.13672,0.6348 0.7519,1.25 1.3965,1.3867c0.8008,0.1758 1.3574,-0.0391 2.041,-0.7812c1.2793,-1.3868 2.7734,-4.0137 3.4766,-6.1231c0.5273,-1.5625 0.7129,-2.793 0.6543,-4.2578c-0.0879,-2.1289 -0.6836,-3.4473 -2.5977,-5.7031c-0.9277,-1.1035 -1.0937,-1.4746 -1.1621,-2.5391c-0.1074,-1.9726 0.8984,-4.5215 3.0078,-7.6172c0.8398,-1.2304 0.9766,-1.6308 0.791,-2.3242c-0.3125,-1.15234 -1.6308,-1.72851 -2.7246,-1.1914z"/>
  <path id="svg_5" fill="#ffffff" d="m26.289,9.67774c-0.5664,0.22461 -1.2597,1.02536 -2.3925,2.72466c-1.2598,1.9042 -2.2071,4.1894 -2.5586,6.1816c-0.2344,1.3086 -0.166,3.2422 0.1465,4.2187c0.4394,1.3672 1.0058,2.3145 2.2851,3.8086c0.3613,0.4297 0.7813,1.0254 0.9278,1.3184c0.2343,0.4883 0.2539,0.6348 0.2441,1.709c-0.0098,0.9765 -0.0488,1.3183 -0.2734,2.0508c-0.4883,1.6113 -1.2598,2.998 -3.1543,5.664c-0.586,0.8301 -0.5079,1.7383 0.205,2.4512c0.6739,0.6836 1.6407,0.791 2.4121,0.2832c0.7422,-0.4785 2.3438,-2.7344 3.2129,-4.4922c1.045,-2.1387 1.5235,-4.209 1.4356,-6.2891c-0.0781,-1.914 -0.6055,-3.2812 -1.8945,-4.8828c-1.8165,-2.2461 -1.836,-2.2949 -1.8262,-3.9648c0,-0.9668 0.039,-1.1816 0.3613,-2.1289c0.5762,-1.6992 1.7285,-3.8867 2.8027,-5.3027c0.4981,-0.6641 0.6836,-1.0938 0.6836,-1.5723c-0.0097,-0.7129 -0.5664,-1.54298 -1.2011,-1.77736c-0.3321,-0.12695 -1.1036,-0.12695 -1.4161,0z"/>
  <path id="svg_6" fill="#ffffff" d="m37.7344,9.73632c-0.5078,0.29298 -0.5762,0.35158 -1.1133,1.00588c-1.875,2.2754 -3.3301,5.3613 -3.7598,7.959c-0.5078,3.0566 0.1856,5.2929 2.4219,7.9004c1.1133,1.2988 1.1914,1.4941 1.1914,3.0371c-0.0098,1.2011 -0.0293,1.3281 -0.3613,2.3144c-0.5664,1.6309 -1.2793,2.9492 -2.5098,4.6192c-0.8105,1.0937 -0.8008,1.0742 -0.8984,1.4941c-0.2832,1.2598 0.918,2.5293 2.1875,2.3242c0.5957,-0.0976 0.8984,-0.3027 1.543,-1.0547c1.289,-1.4941 2.666,-3.9062 3.2519,-5.6836c0.4199,-1.2695 0.6543,-2.6074 0.6543,-3.8086c0.0195,-2.3925 -0.5566,-3.8281 -2.4414,-6.0644c-0.4492,-0.5371 -0.9277,-1.2207 -1.0742,-1.5137c-0.2246,-0.4883 -0.2539,-0.6445 -0.2442,-1.6601c0.0098,-0.918 0.0586,-1.2793 0.2735,-2.002c0.3613,-1.2305 1.4453,-3.3691 2.4707,-4.9316c0.4883,-0.7227 0.9277,-1.416 0.9863,-1.5332c0.1465,-0.2637 0.1465,-1.0059 0.0098,-1.3672c-0.1367,-0.3711 -0.6543,-0.89846 -1.0352,-1.06447c-0.4394,-0.18555 -1.1914,-0.17579 -1.5527,0.02929z"/>
  <path stroke="#ffffff" d="m7.85618,49.25538l33.96858,0c4.02008,0 7.27899,-3.24505 7.27899,-7.24803l0,-33.82416c0,-4.00298 -3.2589,-7.24803 -7.27899,-7.24803l-33.96858,0c-4.02008,0 -7.27899,3.24505 -7.27899,7.24803l0,33.82416c0,4.00299 3.2589,7.24803 7.27899,7.24803z" fill="none" stroke-width="2" id="svg_7"/>
 </g>
</svg>