<?xml version="1.0" encoding="UTF-8" standalone="no" ?>
<!DOCTYPE svg PUBLIC "-//W3C//DTD SVG 1.1//EN" "http://www.w3.org/Graphics/SVG/1.1/DTD/svg11.dtd">
<svg xmlns="http://www.w3.org/2000/svg" xmlns:xlink="http://www.w3.org/1999/xlink" version="1.1" width="200" height="38" viewBox="0 0 200 38" xml:space="preserve">
<g transform="matrix(1 0 0 1 163.59 10.98)" id="I9ouaDsNGiglXaUF1kj65"  >
<path style="stroke: none; stroke-width: 1; stroke-dasharray: none; stroke-linecap: butt; stroke-dashoffset: 0; stroke-linejoin: miter; stroke-miterlimit: 4; fill: rgb(255,111,36); fill-rule: nonzero; opacity: 1;" vector-effect="non-scaling-stroke"  transform=" translate(-163.43, -11.01)" d="M 150.494 0.818139 L 176.366 21.2149 L 176.358 0.809875 L 150.494 0.818139 Z" stroke-linecap="round" />
</g>
<g transform="matrix(1 0 0 1 170.28 25.06)" id="QDCzg7tBUbMlyBmsTO6ZV"  >
<path style="stroke: none; stroke-width: 1; stroke-dasharray: none; stroke-linecap: butt; stroke-dashoffset: 0; stroke-linejoin: miter; stroke-miterlimit: 4; fill: rgb(26,109,65); fill-rule: nonzero; opacity: 1;" vector-effect="non-scaling-stroke"  transform=" translate(-170.12, -25.09)" d="M 156.899 35.5206 L 183.341 35.5118 L 156.89 14.6694 L 156.899 35.5206 Z" stroke-linecap="round" />
</g>
<g transform="matrix(1 0 0 1 37.53 16.38)" id="akOo0jUK1BPKcxQAvlt6d"  >
<path style="stroke: none; stroke-width: 1; stroke-dasharray: none; stroke-linecap: butt; stroke-dashoffset: 0; stroke-linejoin: miter; stroke-miterlimit: 4; fill: rgb(255,255,255); fill-rule: nonzero; opacity: 1;" vector-effect="non-scaling-stroke"  transform=" translate(-37.37, -16.41)" d="M 37.3721 15.3317 C 35.6033 15.3317 34.4521 16.1197 34.2698 17.4814 L 40.4765 17.4814 C 40.2896 16.1391 39.1099 15.3317 37.3721 15.3317 Z" stroke-linecap="round" />
</g>
<g transform="matrix(1 0 0 1 192.77 18.1)" id="U4b5j-FO3874_41i4muTm"  >
<path style="stroke: none; stroke-width: 1; stroke-dasharray: none; stroke-linecap: butt; stroke-dashoffset: 0; stroke-linejoin: miter; stroke-miterlimit: 4; fill: rgb(28,165,79); fill-rule: nonzero; opacity: 1;" vector-effect="non-scaling-stroke"  transform=" translate(-192.61, -18.13)" d="M 185.855 6.08881 L 185.865 30.1752 L 199.362 30.1711 L 199.352 6.08409 L 185.855 6.08881 Z" stroke-linecap="round" />
</g>
<g transform="matrix(1 0 0 1 74.02 18.14)" id="F3QqnCHszm8sM2exJejI1"  >
<path style="stroke: none; stroke-width: 1; stroke-dasharray: none; stroke-linecap: butt; stroke-dashoffset: 0; stroke-linejoin: miter; stroke-miterlimit: 4; fill: rgb(255,255,255); fill-rule: nonzero; opacity: 1;" vector-effect="non-scaling-stroke"  transform=" translate(-73.86, -18.17)" d="M 147.389 6.10773 L 0.312523 6.15731 L 0.322246 30.2396 L 147.398 30.1906 L 147.389 6.10773 Z M 26.487 23.5131 L 21.9869 23.5131 L 21.9869 17.5356 C 21.9869 16.1532 21.024 15.5795 19.7515 15.5795 C 18.6347 15.5795 17.7964 15.9844 16.618 17.1974 L 16.618 23.5131 L 12.1185 23.5131 L 12.114 13.7066 L 16.6147 13.7066 L 16.6147 15.1108 C 17.8769 14.0448 19.5482 13.4713 21.2699 13.5136 C 23.5041 13.5136 26.4838 14.3842 26.4857 17.2776 L 26.487 23.5131 Z M 38.8744 21.871 C 40.6745 21.871 42.0709 21.508 44.1811 20.465 L 44.1811 22.401 C 42.2072 23.3232 40.0065 23.7703 37.7888 23.6996 C 32.7612 23.6996 29.5018 21.7033 29.4999 18.6394 C 29.4999 15.6403 32.6327 13.5118 37.04 13.5113 C 41.1988 13.5113 44.6444 15.5293 44.4283 19.1033 L 34.1557 19.1062 C 34.3114 20.8504 36.0498 21.871 38.8738 21.8704 L 38.8744 21.871 Z M 54.6744 23.6943 L 52.1612 23.6943 L 45.5464 13.6984 L 50.3573 13.6984 L 53.4 19.1003 L 56.4706 13.696 L 61.2497 13.696 L 54.6744 23.6943 Z M 77.7972 22.7935 C 76.4646 23.3277 75.0342 23.631 73.5793 23.6878 C 72.0869 23.6878 71.3731 23.3696 71.0649 22.5828 C 69.6196 23.3062 67.9976 23.6874 66.348 23.6913 C 64.0516 23.6913 62.3444 22.5226 62.3437 21.2884 C 62.3437 18.9486 64.8569 18.48 70.8442 17.2015 C 70.937 16.2866 70.316 15.5636 68.3609 15.5641 C 66.4576 15.5977 64.6133 16.171 63.0854 17.2039 L 63.0854 14.6935 C 65.0328 13.8865 67.1516 13.4792 69.2914 13.5006 C 72.8928 13.5006 75.3443 14.327 75.345 16.4767 L 75.345 20.9437 C 75.3295 21.0361 75.338 21.1305 75.3699 21.2193 C 75.4018 21.3081 75.4561 21.3889 75.5286 21.4552 C 75.601 21.5214 75.6896 21.5713 75.787 21.6008 C 75.8845 21.6302 75.9883 21.6385 76.0899 21.6248 C 76.7026 21.581 77.2916 21.39 77.7965 21.0712 L 77.7972 22.7935 Z M 89.9315 15.7902 L 84.7176 15.7902 L 84.7176 19.8317 C 84.7176 20.789 85.5249 21.4059 86.9239 21.4053 C 87.959 21.3947 88.9818 21.1991 89.9341 20.8298 L 89.9341 23.0627 C 88.594 23.4722 87.1897 23.6812 85.776 23.6813 C 82.7969 23.6813 80.2201 22.7475 80.2195 20.0034 L 80.2195 15.7914 L 78.1709 15.7914 L 78.1709 15.1976 L 84.1589 10.6007 L 84.7176 10.6007 L 84.7176 13.6866 L 89.9315 13.6866 L 89.9315 15.7902 Z M 99.6494 23.6789 C 94.9637 23.6789 91.5479 21.6614 91.5473 18.5762 C 91.5473 15.2366 95.425 13.4912 99.6455 13.49 C 103.15 13.49 107.685 14.8275 107.685 18.5927 C 107.685 22.4854 102.815 23.6777 99.6494 23.6789 Z M 136.646 23.4753 L 132.145 23.4753 L 132.145 17.7321 C 132.145 16.3279 131.152 15.5411 129.506 15.5417 C 128.818 15.5634 128.144 15.7236 127.533 16.0107 C 126.921 16.2978 126.387 16.7047 125.969 17.2021 L 125.969 23.4776 L 121.468 23.4776 L 121.468 17.6713 C 121.468 16.0777 120.071 15.5464 118.736 15.5464 C 117.441 15.5921 116.211 16.0787 115.292 16.9099 L 115.292 23.4818 L 110.792 23.4818 L 110.788 13.6759 L 115.288 13.6759 L 115.288 14.932 C 116.021 14.4578 116.826 14.0846 117.678 13.8247 C 118.51 13.5828 119.38 13.4675 120.254 13.4835 C 122.736 13.4835 124.413 14.1629 125.406 15.5665 C 127.268 14.098 128.91 13.4806 131.051 13.4794 C 134.309 13.4794 136.638 14.9456 136.639 17.1791 L 136.646 23.4753 Z" stroke-linecap="round" />
</g>
<g transform="matrix(1 0 0 1 69.06 21.04)" id="1QREaRWtKENsk9snBY6VJ"  >
<path style="stroke: none; stroke-width: 1; stroke-dasharray: none; stroke-linecap: butt; stroke-dashoffset: 0; stroke-linejoin: miter; stroke-miterlimit: 4; fill: rgb(255,255,255); fill-rule: nonzero; opacity: 1;" vector-effect="non-scaling-stroke"  transform=" translate(-68.9, -21.07)" d="M 66.927 21.582 C 66.9735 21.8941 67.1519 22.1774 67.4242 22.3719 C 67.6965 22.5664 68.0414 22.6568 68.3857 22.6238 C 69.2761 22.6047 70.1402 22.3455 70.8684 21.8789 L 70.8684 19.5179 C 68.1995 20.1772 66.927 20.6034 66.927 21.582 Z" stroke-linecap="round" />
</g>
<g transform="matrix(1 0 0 1 99.78 18.54)" id="leitu3wPdxqqXC7APjRN5"  >
<path style="stroke: none; stroke-width: 1; stroke-dasharray: none; stroke-linecap: butt; stroke-dashoffset: 0; stroke-linejoin: miter; stroke-miterlimit: 4; fill: rgb(255,255,255); fill-rule: nonzero; opacity: 1;" vector-effect="non-scaling-stroke"  transform=" translate(-99.62, -18.57)" d="M 99.6494 15.308 C 97.6936 15.308 96.3595 16.3516 96.3601 18.5639 C 96.3601 21.0949 97.9441 21.8392 99.6513 21.8386 C 101.762 21.8386 102.879 20.6463 102.877 18.4978 C 102.876 16.583 101.914 15.308 99.6494 15.308 Z" stroke-linecap="round" />
</g>
<g transform="matrix(1 0 0 1 1.52 34.81)" id="mzf82bK4CXRSSaxnTtR-q"  >
<path style="stroke: none; stroke-width: 1; stroke-dasharray: none; stroke-linecap: butt; stroke-dashoffset: 0; stroke-linejoin: miter; stroke-miterlimit: 4; fill: rgb(252,252,252); fill-rule: nonzero; opacity: 1;" vector-effect="non-scaling-stroke"  transform=" translate(-1.36, -34.84)" d="M 0.845892 33.2448 C 1.01825 33.2251 1.19321 33.237 1.3604 33.2799 C 1.5276 33.3228 1.68362 33.3958 1.81924 33.4945 C 1.91283 33.5762 1.98601 33.6753 2.03382 33.7849 C 2.08162 33.8946 2.10294 34.0124 2.09631 34.1302 C 2.10152 34.2631 2.06482 34.3946 1.99054 34.5092 C 1.93015 34.6061 1.83775 34.6833 1.72644 34.7299 C 1.898 34.7677 2.05501 34.8473 2.18067 34.9601 C 2.34229 35.1244 2.42581 35.3402 2.41298 35.5604 C 2.41903 35.6657 2.40156 35.771 2.36164 35.8701 C 2.32171 35.9691 2.26015 36.0597 2.18067 36.1365 C 2.04684 36.245 1.89076 36.3285 1.7214 36.3821 C 1.55203 36.4356 1.37271 36.4583 1.1937 36.4487 L 0.3125 36.4487 L 0.3125 33.2448 L 0.845892 33.2448 Z M 0.851083 34.6231 L 1.01461 34.6231 C 1.17286 34.6341 1.3297 34.5893 1.45261 34.4979 C 1.50245 34.4487 1.54052 34.3906 1.56442 34.3273 C 1.58832 34.264 1.59753 34.1969 1.59147 34.1302 C 1.59502 34.074 1.58527 34.0177 1.56289 33.9651 C 1.5405 33.9126 1.506 33.865 1.46169 33.8256 C 1.40271 33.7812 1.33457 33.7478 1.26127 33.7275 C 1.18796 33.7073 1.11094 33.7005 1.03472 33.7076 L 0.851083 33.7076 L 0.851083 34.6231 Z M 0.851083 35.9865 L 1.17553 35.9865 C 1.36307 35.995 1.54903 35.9516 1.70892 35.862 C 1.76453 35.8181 1.8089 35.7636 1.83894 35.7024 C 1.86898 35.6413 1.88396 35.5748 1.88283 35.5079 C 1.88522 35.3834 1.83425 35.2629 1.74072 35.172 C 1.5831 35.0608 1.38434 35.0092 1.18591 35.028 L 0.848488 35.028 L 0.851083 35.9865 Z" stroke-linecap="round" />
</g>
<g transform="matrix(1 0 0 1 7.79 34.81)" id="88InsoeESWhNGkk4fpDmL"  >
<path style="stroke: none; stroke-width: 1; stroke-dasharray: none; stroke-linecap: butt; stroke-dashoffset: 0; stroke-linejoin: miter; stroke-miterlimit: 4; fill: rgb(252,252,252); fill-rule: nonzero; opacity: 1;" vector-effect="non-scaling-stroke"  transform=" translate(-7.63, -34.84)" d="M 8.59888 33.6966 L 7.19467 33.6966 L 7.19467 34.5082 L 8.55735 34.5082 L 8.55735 34.9691 L 7.19467 34.9691 L 7.19467 35.9773 L 8.59888 35.9773 L 8.59888 36.4383 L 6.65673 36.4383 L 6.65673 33.2356 L 8.59888 33.2356 L 8.59888 33.6966 Z" stroke-linecap="round" />
</g>
<g transform="matrix(1 0 0 1 14.3 34.81)" id="gu3rbyQSIAfdaM0MIYD5y"  >
<path style="stroke: none; stroke-width: 1; stroke-dasharray: none; stroke-linecap: butt; stroke-dashoffset: 0; stroke-linejoin: miter; stroke-miterlimit: 4; fill: rgb(252,252,252); fill-rule: nonzero; opacity: 1;" vector-effect="non-scaling-stroke"  transform=" translate(-14.14, -34.84)" d="M 13.3836 34.5028 L 14.8929 34.5028 L 14.8929 33.2356 L 15.4321 33.2356 L 15.4321 36.4383 L 14.8929 36.4383 L 14.8929 34.9627 L 13.3836 34.9627 L 13.3836 36.4383 L 12.845 36.4383 L 12.845 33.2356 L 13.3836 33.2356 L 13.3836 34.5028 Z" stroke-linecap="round" />
</g>
<g transform="matrix(1 0 0 1 20.69 34.81)" id="0fck82VvhacNvMfHfLxE7"  >
<path style="stroke: none; stroke-width: 1; stroke-dasharray: none; stroke-linecap: butt; stroke-dashoffset: 0; stroke-linejoin: miter; stroke-miterlimit: 4; fill: rgb(252,252,252); fill-rule: nonzero; opacity: 1;" vector-effect="non-scaling-stroke"  transform=" translate(-20.53, -34.84)" d="M 20.7951 33.6966 L 20.7951 36.4383 L 20.2565 36.4383 L 20.2565 33.6966 L 19.4492 33.6966 L 19.4492 33.2356 L 21.6029 33.2356 L 21.6029 33.6966 L 20.7951 33.6966 Z" stroke-linecap="round" />
</g>
<g transform="matrix(1 0 0 1 27.25 34.83)" id="wFzSpP34enTwEvqJo9fNi"  >
<path style="stroke: none; stroke-width: 1; stroke-dasharray: none; stroke-linecap: butt; stroke-dashoffset: 0; stroke-linejoin: miter; stroke-miterlimit: 4; fill: rgb(252,252,252); fill-rule: nonzero; opacity: 1;" vector-effect="non-scaling-stroke"  transform=" translate(-27.09, -34.86)" d="M 28.0137 34.3008 L 25.6375 36.6004 L 25.6375 33.2531 L 26.1761 33.2531 L 26.1761 35.4193 L 28.551 33.1173 L 28.551 36.4563 L 28.0131 36.4563 L 28.0137 34.3008 Z" stroke-linecap="round" />
</g>
<g transform="matrix(1 0 0 1 34.29 34.82)" id="KvfRj01vjNLpcXUeNdwOG"  >
<path style="stroke: none; stroke-width: 1; stroke-dasharray: none; stroke-linecap: butt; stroke-dashoffset: 0; stroke-linejoin: miter; stroke-miterlimit: 4; fill: rgb(252,252,252); fill-rule: nonzero; opacity: 1;" vector-effect="non-scaling-stroke"  transform=" translate(-34.13, -34.85)" d="M 35.5939 33.2356 L 35.5939 36.4383 L 35.056 36.4383 L 35.056 33.6966 L 33.8841 33.6966 L 33.8841 35.2903 C 33.9132 35.4678 33.8967 35.6491 33.8359 35.8199 C 33.7751 35.9907 33.6716 36.1464 33.5337 36.2748 C 33.3512 36.4033 33.1259 36.4712 32.8952 36.4672 C 32.815 36.4666 32.7352 36.4569 32.6577 36.4383 L 32.6577 35.9867 C 32.7207 36.0049 32.7863 36.0146 32.8523 36.0157 C 32.9699 36.0182 33.0837 35.9783 33.169 35.9047 C 33.3481 35.7465 33.3429 35.4248 33.3429 35.1462 L 33.3429 33.2356 L 35.5939 33.2356 Z" stroke-linecap="round" />
</g>
<g transform="matrix(1 0 0 1 40.98 34.81)" id="mqEF9k0-TxP2ATzlnzg_v"  >
<path style="stroke: none; stroke-width: 1; stroke-dasharray: none; stroke-linecap: butt; stroke-dashoffset: 0; stroke-linejoin: miter; stroke-miterlimit: 4; fill: rgb(252,252,252); fill-rule: nonzero; opacity: 1;" vector-effect="non-scaling-stroke"  transform=" translate(-40.82, -34.84)" d="M 40.7227 35.108 C 40.5226 35.0843 40.334 35.0094 40.1789 34.892 C 40.0757 34.8062 39.9951 34.7004 39.9431 34.5824 C 39.8911 34.4643 39.869 34.3371 39.8785 34.2103 C 39.8679 33.9642 39.9647 33.7242 40.1478 33.5427 C 40.2738 33.4329 40.4243 33.3491 40.5891 33.2969 C 40.754 33.2448 40.9292 33.2255 41.1029 33.2405 L 41.9686 33.2405 L 41.9686 36.4432 L 41.4306 36.4432 L 41.4306 35.1588 L 41.3008 35.1588 L 40.3431 36.4432 L 39.678 36.4432 L 40.7227 35.108 Z M 41.1665 33.6914 C 40.9523 33.6671 40.7362 33.7206 40.565 33.8402 C 40.5107 33.8882 40.4678 33.9458 40.4388 34.0094 C 40.4098 34.0731 40.3953 34.1414 40.3963 34.2103 C 40.3917 34.2845 40.4076 34.3585 40.4426 34.4257 C 40.4777 34.4928 40.5307 34.5509 40.5968 34.5945 C 40.7621 34.6752 40.9479 34.7149 41.1354 34.7096 L 41.4313 34.7096 L 41.4313 33.692 L 41.1665 33.6914 Z" stroke-linecap="round" />
</g>
<g transform="matrix(1 0 0 1 47.99 35.17)" id="s8_fs06Z3bMYh4hAuyogF"  >
<path style="stroke: none; stroke-width: 1; stroke-dasharray: none; stroke-linecap: butt; stroke-dashoffset: 0; stroke-linejoin: miter; stroke-miterlimit: 4; fill: rgb(252,252,252); fill-rule: nonzero; opacity: 1;" vector-effect="non-scaling-stroke"  transform=" translate(-47.83, -35.2)" d="M 46.3343 33.2356 L 46.8728 33.2356 L 46.8728 35.9773 L 48.3296 35.9773 L 48.3296 33.2356 L 48.8649 33.2356 L 48.8649 35.9773 L 49.3192 35.9773 L 49.3192 37.1578 L 48.815 37.1578 L 48.815 36.4383 L 46.3343 36.4383 L 46.3343 33.2356 Z" stroke-linecap="round" />
</g>
<g transform="matrix(1 0 0 1 55.02 34.83)" id="JclIDYByveY7IG9iQCkOU"  >
<path style="stroke: none; stroke-width: 1; stroke-dasharray: none; stroke-linecap: butt; stroke-dashoffset: 0; stroke-linejoin: miter; stroke-miterlimit: 4; fill: rgb(252,252,252); fill-rule: nonzero; opacity: 1;" vector-effect="non-scaling-stroke"  transform=" translate(-54.86, -34.86)" d="M 55.7827 34.3008 L 53.4065 36.6004 L 53.4065 33.2531 L 53.9451 33.2531 L 53.9451 35.4193 L 56.3207 33.1173 L 56.3207 36.4563 L 55.7821 36.4563 L 55.7827 34.3008 Z" stroke-linecap="round" />
</g>
<g transform="matrix(1 0 0 1 61.99 34.63)" id="0uCGZ4uHiBHECnCThgVLX"  >
<path style="stroke: none; stroke-width: 1; stroke-dasharray: none; stroke-linecap: butt; stroke-dashoffset: 0; stroke-linejoin: miter; stroke-miterlimit: 4; fill: rgb(252,252,252); fill-rule: nonzero; opacity: 1;" vector-effect="non-scaling-stroke"  transform=" translate(-61.83, -34.66)" d="M 63.6635 34.6615 C 63.669 34.8814 63.6254 35.1001 63.5353 35.3042 C 63.4451 35.5084 63.3104 35.6937 63.1392 35.8491 C 62.9679 36.0044 62.7638 36.1266 62.5392 36.208 C 62.3146 36.2895 62.0741 36.3286 61.8323 36.3231 C 61.5905 36.3288 61.3499 36.2898 61.1251 36.2084 C 60.9004 36.127 60.6961 36.0049 60.5248 35.8495 C 60.3535 35.6941 60.2187 35.5087 60.1286 35.3045 C 60.0384 35.1003 59.9949 34.8815 60.0005 34.6615 C 59.995 34.4416 60.0386 34.2229 60.1288 34.0187 C 60.2189 33.8146 60.3538 33.6293 60.5251 33.4739 C 60.6964 33.3186 60.9006 33.1966 61.1253 33.1152 C 61.35 33.0338 61.5905 32.9948 61.8323 33.0006 C 62.074 32.9949 62.3145 33.034 62.5392 33.1154 C 62.7638 33.1968 62.9679 33.3188 63.1391 33.4742 C 63.3104 33.6295 63.4451 33.8148 63.5353 34.0189 C 63.6254 34.223 63.669 34.4416 63.6635 34.6615 L 63.6635 34.6615 Z M 63.1249 34.6615 C 63.1347 34.5031 63.1082 34.3446 63.0472 34.1961 C 62.9861 34.0475 62.8918 33.912 62.7703 33.7983 C 62.6487 33.6846 62.5025 33.595 62.341 33.5353 C 62.1794 33.4756 62.006 33.4471 61.8317 33.4515 C 61.6573 33.4471 61.4839 33.4756 61.3224 33.5353 C 61.1608 33.595 61.0146 33.6846 60.8931 33.7983 C 60.7715 33.912 60.6772 34.0475 60.6162 34.1961 C 60.5551 34.3446 60.5287 34.5031 60.5384 34.6615 C 60.5286 34.82 60.555 34.9786 60.616 35.1273 C 60.6771 35.276 60.7714 35.4115 60.893 35.5253 C 61.0147 35.6392 61.161 35.7287 61.3226 35.7884 C 61.4843 35.8481 61.6579 35.8766 61.8323 35.8721 C 62.0066 35.8765 62.1801 35.848 62.3416 35.7883 C 62.5032 35.7286 62.6494 35.6391 62.7709 35.5253 C 62.8925 35.4116 62.9868 35.2761 63.0478 35.1276 C 63.1089 34.979 63.1353 34.8205 63.1256 34.6621" stroke-linecap="round" />
</g>
<g transform="matrix(1 0 0 1 69.89 34.81)" id="Xbeu9NNsmO29WUTun8JfU"  >
<path style="stroke: none; stroke-width: 1; stroke-dasharray: none; stroke-linecap: butt; stroke-dashoffset: 0; stroke-linejoin: miter; stroke-miterlimit: 4; fill: rgb(252,252,252); fill-rule: nonzero; opacity: 1;" vector-effect="non-scaling-stroke"  transform=" translate(-69.73, -34.84)" d="M 68.9737 34.5028 L 70.483 34.5028 L 70.483 33.2356 L 71.0222 33.2356 L 71.0222 36.4383 L 70.483 36.4383 L 70.483 34.9627 L 68.9737 34.9627 L 68.9737 36.4383 L 68.4351 36.4383 L 68.4351 33.2356 L 68.9737 33.2356 L 68.9737 34.5028 Z" stroke-linecap="round" />
</g>
<g transform="matrix(1 0 0 1 76.91 34.81)" id="dIdDS3pyz4X_kh9WrC44P"  >
<path style="stroke: none; stroke-width: 1; stroke-dasharray: none; stroke-linecap: butt; stroke-dashoffset: 0; stroke-linejoin: miter; stroke-miterlimit: 4; fill: rgb(252,252,252); fill-rule: nonzero; opacity: 1;" vector-effect="non-scaling-stroke"  transform=" translate(-76.75, -34.84)" d="M 75.9939 34.5028 L 77.5032 34.5028 L 77.5032 33.2356 L 78.0425 33.2356 L 78.0425 36.4383 L 77.5032 36.4383 L 77.5032 34.9627 L 75.9939 34.9627 L 75.9939 36.4383 L 75.4553 36.4383 L 75.4553 33.2356 L 75.9939 33.2356 L 75.9939 34.5028 Z" stroke-linecap="round" />
</g>
<g transform="matrix(1 0 0 1 84.11 34.81)" id="YfB6xTNh43HhKYdCqiBTG"  >
<path style="stroke: none; stroke-width: 1; stroke-dasharray: none; stroke-linecap: butt; stroke-dashoffset: 0; stroke-linejoin: miter; stroke-miterlimit: 4; fill: rgb(252,252,252); fill-rule: nonzero; opacity: 1;" vector-effect="non-scaling-stroke"  transform=" translate(-83.95, -34.84)" d="M 82.4236 33.2356 L 82.9622 33.2356 L 82.9622 34.5271 L 83.3632 34.5271 C 83.681 34.5126 83.9939 34.6029 84.2444 34.7815 C 84.3522 34.8711 84.4376 34.9807 84.4949 35.1029 C 84.5522 35.225 84.5801 35.357 84.5766 35.4898 C 84.5796 35.6422 84.5412 35.793 84.4648 35.9287 C 84.3884 36.0644 84.2763 36.1808 84.1386 36.2677 C 83.9059 36.393 83.6378 36.4532 83.3677 36.4407 L 82.4236 36.4407 L 82.4236 33.2356 Z M 82.9622 35.9773 L 83.3418 35.9773 C 83.4845 35.9773 84.0491 35.9773 84.0491 35.4921 C 84.0491 35.2619 83.9193 34.988 83.3522 34.988 L 82.9622 34.988 L 82.9622 35.9773 Z M 85.4851 36.4383 L 84.9465 36.4383 L 84.9465 33.2356 L 85.4851 33.2356 L 85.4851 36.4383 Z" stroke-linecap="round" />
</g>
<g transform="matrix(1 0 0 1 91.04 34.81)" id="_wkPq3MJYXlPe2FbfVssM"  >
<path style="stroke: none; stroke-width: 1; stroke-dasharray: none; stroke-linecap: butt; stroke-dashoffset: 0; stroke-linejoin: miter; stroke-miterlimit: 4; fill: rgb(252,252,252); fill-rule: nonzero; opacity: 1;" vector-effect="non-scaling-stroke"  transform=" translate(-90.88, -34.84)" d="M 91.8546 33.6966 L 90.4504 33.6966 L 90.4504 34.5082 L 91.8131 34.5082 L 91.8131 34.9691 L 90.4504 34.9691 L 90.4504 35.9773 L 91.8546 35.9773 L 91.8546 36.4383 L 89.9118 36.4383 L 89.9118 33.2356 L 91.8546 33.2356 L 91.8546 33.6966 Z" stroke-linecap="round" />
</g>
<g transform="matrix(1 0 0 1 104.25 34.82)" id="VklyFELP630UxFuiX5wHA"  >
<path style="stroke: none; stroke-width: 1; stroke-dasharray: none; stroke-linecap: butt; stroke-dashoffset: 0; stroke-linejoin: miter; stroke-miterlimit: 4; fill: rgb(252,252,252); fill-rule: nonzero; opacity: 1;" vector-effect="non-scaling-stroke"  transform=" translate(-104.09, -34.85)" d="M 105.481 33.9943 C 105.225 33.7678 104.883 33.6407 104.526 33.6401 C 104.351 33.6364 104.178 33.6658 104.017 33.7265 C 103.855 33.7871 103.709 33.8776 103.589 33.9923 C 103.468 34.1069 103.375 34.2432 103.315 34.3924 C 103.255 34.5416 103.23 34.7005 103.242 34.859 C 103.235 35.0158 103.264 35.1722 103.326 35.3186 C 103.388 35.465 103.482 35.5985 103.602 35.7108 C 103.722 35.8231 103.867 35.9119 104.026 35.9719 C 104.186 36.0319 104.357 36.0617 104.529 36.0596 C 104.887 36.0516 105.228 35.9191 105.481 35.6895 L 105.481 36.2703 C 105.188 36.4262 104.855 36.5089 104.516 36.5099 C 104.053 36.5172 103.605 36.3586 103.27 36.0684 C 103.085 35.9158 102.939 35.7286 102.842 35.5197 C 102.744 35.3108 102.698 35.0852 102.705 34.8584 C 102.698 34.6259 102.745 34.3947 102.842 34.1795 C 102.939 33.9642 103.084 33.7697 103.268 33.6083 C 103.438 33.4651 103.639 33.3544 103.857 33.2826 C 104.076 33.2108 104.308 33.1795 104.54 33.1904 C 104.871 33.1808 105.198 33.2609 105.479 33.4206 L 105.481 33.9943 Z" stroke-linecap="round" />
</g>
<g transform="matrix(1 0 0 1 111.34 34.83)" id="FbcjJUySZd0ePELMHTrfc"  >
<path style="stroke: none; stroke-width: 1; stroke-dasharray: none; stroke-linecap: butt; stroke-dashoffset: 0; stroke-linejoin: miter; stroke-miterlimit: 4; fill: rgb(252,252,252); fill-rule: nonzero; opacity: 1;" vector-effect="non-scaling-stroke"  transform=" translate(-111.18, -34.86)" d="M 112.101 34.3008 L 109.725 36.6004 L 109.725 33.2531 L 110.263 33.2531 L 110.263 35.4193 L 112.638 33.1173 L 112.638 36.4563 L 112.1 36.4563 L 112.101 34.3008 Z" stroke-linecap="round" />
</g>
<g transform="matrix(1 0 0 1 118.4 34.82)" id="t6YYZz4h1t8Zrsipru2lb"  >
<path style="stroke: none; stroke-width: 1; stroke-dasharray: none; stroke-linecap: butt; stroke-dashoffset: 0; stroke-linejoin: miter; stroke-miterlimit: 4; fill: rgb(252,252,252); fill-rule: nonzero; opacity: 1;" vector-effect="non-scaling-stroke"  transform=" translate(-118.24, -34.85)" d="M 119.628 33.9943 C 119.372 33.7678 119.029 33.6407 118.672 33.6402 C 118.498 33.6365 118.324 33.6658 118.163 33.7265 C 118.002 33.7871 117.856 33.8776 117.735 33.9923 C 117.614 34.1069 117.521 34.2432 117.461 34.3924 C 117.402 34.5417 117.377 34.7006 117.388 34.859 C 117.382 35.0158 117.41 35.1722 117.472 35.3186 C 117.534 35.465 117.628 35.5985 117.749 35.7108 C 117.869 35.8231 118.013 35.9119 118.173 35.9719 C 118.332 36.0319 118.503 36.0617 118.676 36.0596 C 119.033 36.0517 119.374 35.9192 119.628 35.6895 L 119.628 36.2703 C 119.335 36.4262 119.001 36.5089 118.662 36.51 C 118.199 36.5177 117.751 36.3591 117.415 36.0684 C 117.23 35.916 117.084 35.7289 116.986 35.5201 C 116.889 35.3113 116.842 35.0858 116.85 34.859 C 116.843 34.6263 116.89 34.3948 116.987 34.1794 C 117.085 33.9641 117.23 33.7695 117.415 33.6083 C 117.586 33.4651 117.786 33.3543 118.004 33.2826 C 118.223 33.2108 118.455 33.1795 118.687 33.1904 C 119.018 33.1808 119.345 33.2609 119.626 33.4206 L 119.628 33.9943 Z" stroke-linecap="round" />
</g>
<g transform="matrix(1 0 0 1 124.74 34.81)" id="3k20arBTyx-ySIlyaBkdM"  >
<path style="stroke: none; stroke-width: 1; stroke-dasharray: none; stroke-linecap: butt; stroke-dashoffset: 0; stroke-linejoin: miter; stroke-miterlimit: 4; fill: rgb(252,252,252); fill-rule: nonzero; opacity: 1;" vector-effect="non-scaling-stroke"  transform=" translate(-124.58, -34.84)" d="M 124.851 33.6966 L 124.851 36.4383 L 124.312 36.4383 L 124.312 33.6966 L 123.505 33.6966 L 123.505 33.2356 L 125.659 33.2356 L 125.659 33.6966 L 124.851 33.6966 Z" stroke-linecap="round" />
</g>
<g transform="matrix(1 0 0 1 130.82 34.81)" id="UauthH2zEvWGTmid__1bS"  >
<path style="stroke: none; stroke-width: 1; stroke-dasharray: none; stroke-linecap: butt; stroke-dashoffset: 0; stroke-linejoin: miter; stroke-miterlimit: 4; fill: rgb(252,252,252); fill-rule: nonzero; opacity: 1;" vector-effect="non-scaling-stroke"  transform=" translate(-130.66, -34.84)" d="M 131.635 33.6966 L 130.231 33.6966 L 130.231 34.5082 L 131.594 34.5082 L 131.594 34.9691 L 130.231 34.9691 L 130.231 35.9773 L 131.635 35.9773 L 131.635 36.4383 L 129.693 36.4383 L 129.693 33.2356 L 131.635 33.2356 L 131.635 33.6966 Z" stroke-linecap="round" />
</g>
<g transform="matrix(1 0 0 1 137.87 34.76)" id="irT67GvHjUvBB0sPENWX6"  >
<path style="stroke: none; stroke-width: 1; stroke-dasharray: none; stroke-linecap: butt; stroke-dashoffset: 0; stroke-linejoin: miter; stroke-miterlimit: 4; fill: rgb(252,252,252); fill-rule: nonzero; opacity: 1;" vector-effect="non-scaling-stroke"  transform=" translate(-137.71, -34.79)" d="M 135.778 36.442 L 136.517 32.9991 L 137.741 35.4864 L 138.974 32.9991 L 139.641 36.442 L 139.092 36.442 L 138.733 34.5119 L 137.709 36.5908 L 136.696 34.5054 L 136.327 36.442 L 135.778 36.442 Z" stroke-linecap="round" />
</g>
<g transform="matrix(1 0 0 1 145.63 34.81)" id="YEBtzlzMRis6kt0Wpnh4G"  >
<path style="stroke: none; stroke-width: 1; stroke-dasharray: none; stroke-linecap: butt; stroke-dashoffset: 0; stroke-linejoin: miter; stroke-miterlimit: 4; fill: rgb(252,252,252); fill-rule: nonzero; opacity: 1;" vector-effect="non-scaling-stroke"  transform=" translate(-145.47, -34.84)" d="M 143.942 33.2356 L 144.48 33.2356 L 144.48 34.5271 L 144.881 34.5271 C 145.199 34.5126 145.512 34.6029 145.763 34.7815 C 145.871 34.8711 145.956 34.9806 146.013 35.1028 C 146.071 35.225 146.099 35.3569 146.096 35.4898 C 146.099 35.6422 146.06 35.793 145.984 35.9287 C 145.907 36.0644 145.795 36.1808 145.658 36.2677 C 145.425 36.393 145.157 36.4532 144.887 36.4407 L 143.942 36.4407 L 143.942 33.2356 Z M 144.48 35.9773 L 144.86 35.9773 C 145.003 35.9773 145.567 35.9773 145.567 35.4921 C 145.567 35.2619 145.438 34.988 144.87 34.988 L 144.48 34.988 L 144.48 35.9773 Z M 147.003 36.4383 L 146.465 36.4383 L 146.465 33.2356 L 147.003 33.2356 L 147.003 36.4383 Z" stroke-linecap="round" />
</g>
</svg>
