<svg xmlns="http://www.w3.org/2000/svg" viewBox="0 0 339.42 65.06"><defs><style>.cls-4{fill:#009845}</style></defs><g id="Layer_2" data-name="Layer 2"><g id="Layer_1-2" data-name="Layer 1"><path fill="#fff" d="M3.04 12.76h244.09v38.98H3.04z"/><path fill="#ec6b00" d="M256.12 0l44.11 38.26V0h-44.11z"/><path fill="#006937" d="M267.03 65.06h45.1l-45.1-39.09v39.09z"/><path class="cls-4" d="M63.17 27.16c-3 0-5 1.48-5.3 4h10.59c-.32-2.48-2.33-4-5.29-4zM316.4 9.92h23.02v45.16H316.4z"/><path class="cls-4" d="M250.85 9.92H0v45.16h250.85zM44.63 42.48H37V31.27c0-2.59-1.65-3.67-3.82-3.67-1.9 0-3.33.76-5.34 3v11.88h-7.72V24.09h7.68v2.63a11.22 11.22 0 017.94-3c3.81 0 8.89 1.64 8.89 7.06zm21.13-3.07c3.07 0 5.45-.68 9-2.63v3.63a22.19 22.19 0 01-10.9 2.43c-8.58 0-14.14-3.75-14.14-9.49s5.35-9.62 12.87-9.62c7.09 0 13 3.79 12.6 10.49H57.71c.29 3.27 3.23 5.19 8.05 5.19zm26.95 3.43h-4.29L77.15 24.09h8.2l5.19 10.13 5.24-10.13h8.15zm39.44-1.68a19.94 19.94 0 01-7.2 1.68c-2.54 0-3.76-.6-4.29-2.08a16.73 16.73 0 01-8 2.08c-3.91 0-6.82-2.19-6.82-4.51 0-4.39 4.28-5.26 14.5-7.66.16-1.71-.9-3.07-4.23-3.07a15.6 15.6 0 00-9 3.07V26a24.79 24.79 0 0110.58-2.24c6.14 0 10.33 1.56 10.33 5.59v8.37a1.12 1.12 0 001.22 1.28c.52 0 1.11-.08 2.91-1zM152.85 28H144v7.58c0 1.79 1.38 3 3.76 3a13.46 13.46 0 005.14-1.08v4.19a22.25 22.25 0 01-7.1 1.16c-5.08 0-9.47-1.76-9.47-6.9V28h-3.49v-1.08L143 18.31h1v5.78h8.9zm16.57 14.8c-8 0-13.82-3.79-13.82-9.58 0-6.26 6.62-9.53 13.82-9.53 6 0 13.71 2.52 13.71 9.58 0 7.34-8.31 9.57-13.71 9.57zm63.1-.36h-7.68V31.71c0-2.63-1.69-4.11-4.5-4.11a8 8 0 00-6 3.11v11.77h-7.68V31.59c0-3-2.38-4-4.65-4a8.8 8.8 0 00-5.88 2.56v12.33h-7.68V24.09h7.68v2.36a15.44 15.44 0 014.08-2.08 13.42 13.42 0 014.39-.64c4.23 0 7.09 1.28 8.79 3.91 3.17-2.75 6-3.91 9.63-3.91 5.56 0 9.53 2.76 9.53 6.94z"/><path class="cls-4" d="M113.57 37.45a2.27 2.27 0 002.48 2 7.67 7.67 0 004.24-1.4v-4.47c-4.55 1.24-6.72 2.04-6.72 3.87zm55.85-10.29c-3.34 0-5.61 2-5.61 6.11 0 4.74 2.69 6.14 5.61 6.14 3.6 0 5.5-2.24 5.5-6.26 0-3.59-1.64-5.99-5.5-5.99z"/></g></g></svg>