<?xml version="1.0" encoding="UTF-8" standalone="no"?>
<svg
   width="50"
   height="50"
   stroke-linejoin="round"
   stroke-linecap="round"
   fill="none"
   stroke="currentColor"
   stroke-width="2"
   class="icon icon-tabler icon-tabler-wind"
   version="1.1"
   id="svg1"
   sodipodi:docname="speed.svg"
   inkscape:version="1.3 (0e150ed6c4, 2023-07-21)"
   xmlns:inkscape="http://www.inkscape.org/namespaces/inkscape"
   xmlns:sodipodi="http://sodipodi.sourceforge.net/DTD/sodipodi-0.dtd"
   xmlns="http://www.w3.org/2000/svg"
   xmlns:svg="http://www.w3.org/2000/svg">
  <defs
     id="defs1" />
  <sodipodi:namedview
     id="namedview1"
     pagecolor="#ffffff"
     bordercolor="#000000"
     borderopacity="0.25"
     inkscape:showpageshadow="2"
     inkscape:pageopacity="0.0"
     inkscape:pagecheckerboard="0"
     inkscape:deskcolor="#d1d1d1"
     inkscape:zoom="16.42"
     inkscape:cx="25"
     inkscape:cy="25"
     inkscape:window-width="1920"
     inkscape:window-height="1017"
     inkscape:window-x="-8"
     inkscape:window-y="-8"
     inkscape:window-maximized="1"
     inkscape:current-layer="g1" />
  <g
     id="g1">
    <title
       id="title1">Layer 1</title>
    <g
       stroke="null"
       id="svg_5">
      <path
         stroke="null"
         id="svg_2"
         d="m10.9947,18.1366l16.97748,0a4.99338,4.3377 0 1 0 -4.6738,-5.62166"
         style="fill:#ffffff;fill-opacity:1;stroke:#ffffff;stroke-opacity:1" />
      <path
         stroke="null"
         id="svg_3"
         d="m7,25.07692l30.95893,0a4.99338,4.3377 0 1 1 -4.6738,5.62166"
         style="fill:#ffffff;fill-opacity:1;stroke:#ffffff;stroke-opacity:1" />
      <path
         stroke="null"
         id="svg_4"
         d="m8.99735,32.01724l10.98543,0a4.99338,4.3377 0 1 1 -4.6738,5.62166"
         style="fill:#ffffff;fill-opacity:1;stroke:#ffffff;stroke-opacity:1" />
    </g>
    <path
       id="svg_12"
       stroke-width="2"
       fill="none"
       d="m7.87225,49.24735l33.96858,0c4.02008,0 7.27899,-3.24505 7.27899,-7.24803l0,-33.82416c0,-4.00298 -3.2589,-7.24803 -7.27899,-7.24803l-33.96858,0c-4.02008,0 -7.27899,3.24505 -7.27899,7.24803l0,33.82416c0,4.00299 3.2589,7.24803 7.27899,7.24803z"
       stroke="#000000"
       style="stroke:#ffffff;stroke-opacity:1" />
  </g>
</svg>
