<svg width="200" height="38" viewBox="0 0 200 38" fill="none" xmlns="http://www.w3.org/2000/svg">
<path d="M150.494 0.818139L176.366 21.2149L176.358 0.809875L150.494 0.818139Z" fill="#FF6F24"/>
<path d="M156.899 35.5206L183.341 35.5118L156.89 14.6694L156.899 35.5206Z" fill="#1A6D41"/>
<path d="M37.3721 15.3317C35.6033 15.3317 34.4521 16.1197 34.2698 17.4814H40.4765C40.2896 16.1391 39.1099 15.3317 37.3721 15.3317Z" fill="#26A455"/>
<path d="M185.855 6.08881L185.865 30.1752L199.362 30.1711L199.352 6.08409L185.855 6.08881Z" fill="#26A455"/>
<path d="M147.389 6.10773L0.312523 6.15731L0.322246 30.2396L147.398 30.1906L147.389 6.10773ZM26.487 23.5131H21.9869V17.5356C21.9869 16.1532 21.024 15.5795 19.7515 15.5795C18.6347 15.5795 17.7964 15.9844 16.618 17.1974V23.5131H12.1185L12.114 13.7066H16.6147V15.1108C17.8769 14.0448 19.5482 13.4713 21.2699 13.5136C23.5041 13.5136 26.4838 14.3842 26.4857 17.2776L26.487 23.5131ZM38.8744 21.871C40.6745 21.871 42.0709 21.508 44.1811 20.465V22.401C42.2072 23.3232 40.0065 23.7703 37.7888 23.6996C32.7612 23.6996 29.5018 21.7033 29.4999 18.6394C29.4999 15.6403 32.6327 13.5118 37.04 13.5113C41.1988 13.5113 44.6444 15.5293 44.4283 19.1033L34.1557 19.1062C34.3114 20.8504 36.0498 21.871 38.8738 21.8704L38.8744 21.871ZM54.6744 23.6943H52.1612L45.5464 13.6984H50.3573L53.4 19.1003L56.4706 13.696H61.2497L54.6744 23.6943ZM77.7972 22.7935C76.4646 23.3277 75.0342 23.631 73.5793 23.6878C72.0869 23.6878 71.3731 23.3696 71.0649 22.5828C69.6196 23.3062 67.9976 23.6874 66.348 23.6913C64.0516 23.6913 62.3444 22.5226 62.3437 21.2884C62.3437 18.9486 64.8569 18.48 70.8442 17.2015C70.937 16.2866 70.316 15.5636 68.3609 15.5641C66.4576 15.5977 64.6133 16.171 63.0854 17.2039V14.6935C65.0328 13.8865 67.1516 13.4792 69.2914 13.5006C72.8928 13.5006 75.3443 14.327 75.345 16.4767V20.9437C75.3295 21.0361 75.338 21.1305 75.3699 21.2193C75.4018 21.3081 75.4561 21.3889 75.5286 21.4552C75.601 21.5214 75.6896 21.5713 75.787 21.6008C75.8845 21.6302 75.9883 21.6385 76.0899 21.6248C76.7026 21.581 77.2916 21.39 77.7965 21.0712L77.7972 22.7935ZM89.9315 15.7902H84.7176V19.8317C84.7176 20.789 85.5249 21.4059 86.9239 21.4053C87.959 21.3947 88.9818 21.1991 89.9341 20.8298V23.0627C88.594 23.4722 87.1897 23.6812 85.776 23.6813C82.7969 23.6813 80.2201 22.7475 80.2195 20.0034V15.7914H78.1709V15.1976L84.1589 10.6007H84.7176V13.6866H89.9315V15.7902ZM99.6494 23.6789C94.9637 23.6789 91.5479 21.6614 91.5473 18.5762C91.5473 15.2366 95.425 13.4912 99.6455 13.49C103.15 13.49 107.685 14.8275 107.685 18.5927C107.685 22.4854 102.815 23.6777 99.6494 23.6789ZM136.646 23.4753H132.145V17.7321C132.145 16.3279 131.152 15.5411 129.506 15.5417C128.818 15.5634 128.144 15.7236 127.533 16.0107C126.921 16.2978 126.387 16.7047 125.969 17.2021V23.4776H121.468V17.6713C121.468 16.0777 120.071 15.5464 118.736 15.5464C117.441 15.5921 116.211 16.0787 115.292 16.9099V23.4818H110.792L110.788 13.6759H115.288V14.932C116.021 14.4578 116.826 14.0846 117.678 13.8247C118.51 13.5828 119.38 13.4675 120.254 13.4835C122.736 13.4835 124.413 14.1629 125.406 15.5665C127.268 14.098 128.91 13.4806 131.051 13.4794C134.309 13.4794 136.638 14.9456 136.639 17.1791L136.646 23.4753Z" fill="#26A455"/>
<path d="M66.927 21.582C66.9735 21.8941 67.1519 22.1774 67.4242 22.3719C67.6965 22.5664 68.0414 22.6568 68.3857 22.6238C69.2761 22.6047 70.1402 22.3455 70.8684 21.8789V19.5179C68.1995 20.1772 66.927 20.6034 66.927 21.582Z" fill="#26A455"/>
<path d="M99.6494 15.308C97.6936 15.308 96.3595 16.3516 96.3601 18.5639C96.3601 21.0949 97.9441 21.8392 99.6513 21.8386C101.762 21.8386 102.879 20.6463 102.877 18.4978C102.876 16.583 101.914 15.308 99.6494 15.308Z" fill="#26A455"/>
<path d="M0.845892 33.2448C1.01825 33.2251 1.19321 33.237 1.3604 33.2799C1.5276 33.3228 1.68362 33.3958 1.81924 33.4945C1.91283 33.5762 1.98601 33.6753 2.03382 33.7849C2.08162 33.8946 2.10294 34.0124 2.09631 34.1302C2.10152 34.2631 2.06482 34.3946 1.99054 34.5092C1.93015 34.6061 1.83775 34.6833 1.72644 34.7299C1.898 34.7677 2.05501 34.8473 2.18067 34.9601C2.34229 35.1244 2.42581 35.3402 2.41298 35.5604C2.41903 35.6657 2.40156 35.771 2.36164 35.8701C2.32171 35.9691 2.26015 36.0597 2.18067 36.1365C2.04684 36.245 1.89076 36.3285 1.7214 36.3821C1.55203 36.4356 1.37271 36.4583 1.1937 36.4487H0.3125V33.2448H0.845892ZM0.851083 34.6231H1.01461C1.17286 34.6341 1.3297 34.5893 1.45261 34.4979C1.50245 34.4487 1.54052 34.3906 1.56442 34.3273C1.58832 34.264 1.59753 34.1969 1.59147 34.1302C1.59502 34.074 1.58527 34.0177 1.56289 33.9651C1.5405 33.9126 1.506 33.865 1.46169 33.8256C1.40271 33.7812 1.33457 33.7478 1.26127 33.7275C1.18796 33.7073 1.11094 33.7005 1.03472 33.7076H0.851083V34.6231ZM0.851083 35.9865H1.17553C1.36307 35.995 1.54903 35.9516 1.70892 35.862C1.76453 35.8181 1.8089 35.7636 1.83894 35.7024C1.86898 35.6413 1.88396 35.5748 1.88283 35.5079C1.88522 35.3834 1.83425 35.2629 1.74072 35.172C1.5831 35.0608 1.38434 35.0092 1.18591 35.028H0.848488L0.851083 35.9865Z" fill="#1A6D41"/>
<path d="M8.59888 33.6966H7.19467V34.5082H8.55735V34.9691H7.19467V35.9773H8.59888V36.4383H6.65673V33.2356H8.59888V33.6966Z" fill="#1A6D41"/>
<path d="M13.3836 34.5028H14.8929V33.2356H15.4321V36.4383H14.8929V34.9627H13.3836V36.4383H12.845V33.2356H13.3836V34.5028Z" fill="#1A6D41"/>
<path d="M20.7951 33.6966V36.4383H20.2565V33.6966H19.4492V33.2356H21.6029V33.6966H20.7951Z" fill="#1A6D41"/>
<path d="M28.0137 34.3008L25.6375 36.6004V33.2531H26.1761V35.4193L28.551 33.1173V36.4563H28.0131L28.0137 34.3008Z" fill="#1A6D41"/>
<path d="M35.5939 33.2356V36.4383H35.056V33.6966H33.8841V35.2903C33.9132 35.4678 33.8967 35.6491 33.8359 35.8199C33.7751 35.9907 33.6716 36.1464 33.5337 36.2748C33.3512 36.4033 33.1259 36.4712 32.8952 36.4672C32.815 36.4666 32.7352 36.4569 32.6577 36.4383V35.9867C32.7207 36.0049 32.7863 36.0146 32.8523 36.0157C32.9699 36.0182 33.0837 35.9783 33.169 35.9047C33.3481 35.7465 33.3429 35.4248 33.3429 35.1462V33.2356H35.5939Z" fill="#1A6D41"/>
<path d="M40.7227 35.108C40.5226 35.0843 40.334 35.0094 40.1789 34.892C40.0757 34.8062 39.9951 34.7004 39.9431 34.5824C39.8911 34.4643 39.869 34.3371 39.8785 34.2103C39.8679 33.9642 39.9647 33.7242 40.1478 33.5427C40.2738 33.4329 40.4243 33.3491 40.5891 33.2969C40.754 33.2448 40.9292 33.2255 41.1029 33.2405H41.9686V36.4432H41.4306V35.1588H41.3008L40.3431 36.4432H39.678L40.7227 35.108ZM41.1665 33.6914C40.9523 33.6671 40.7362 33.7206 40.565 33.8402C40.5107 33.8882 40.4678 33.9458 40.4388 34.0094C40.4098 34.0731 40.3953 34.1414 40.3963 34.2103C40.3917 34.2845 40.4076 34.3585 40.4426 34.4257C40.4777 34.4928 40.5307 34.5509 40.5968 34.5945C40.7621 34.6752 40.9479 34.7149 41.1354 34.7096H41.4313V33.692L41.1665 33.6914Z" fill="#1A6D41"/>
<path d="M46.3343 33.2356H46.8728V35.9773H48.3296V33.2356H48.8649V35.9773H49.3192V37.1578H48.815V36.4383H46.3343V33.2356Z" fill="#1A6D41"/>
<path d="M55.7827 34.3008L53.4065 36.6004V33.2531H53.9451V35.4193L56.3207 33.1173V36.4563H55.7821L55.7827 34.3008Z" fill="#1A6D41"/>
<path d="M63.6635 34.6615C63.669 34.8814 63.6254 35.1001 63.5353 35.3042C63.4451 35.5084 63.3104 35.6937 63.1392 35.8491C62.9679 36.0044 62.7638 36.1266 62.5392 36.208C62.3146 36.2895 62.0741 36.3286 61.8323 36.3231C61.5905 36.3288 61.3499 36.2898 61.1251 36.2084C60.9004 36.127 60.6961 36.0049 60.5248 35.8495C60.3535 35.6941 60.2187 35.5087 60.1286 35.3045C60.0384 35.1003 59.9949 34.8815 60.0005 34.6615C59.995 34.4416 60.0386 34.2229 60.1288 34.0187C60.2189 33.8146 60.3538 33.6293 60.5251 33.4739C60.6964 33.3186 60.9006 33.1966 61.1253 33.1152C61.35 33.0338 61.5905 32.9948 61.8323 33.0006C62.074 32.9949 62.3145 33.034 62.5392 33.1154C62.7638 33.1968 62.9679 33.3188 63.1391 33.4742C63.3104 33.6295 63.4451 33.8148 63.5353 34.0189C63.6254 34.223 63.669 34.4416 63.6635 34.6615V34.6615ZM63.1249 34.6615C63.1347 34.5031 63.1082 34.3446 63.0472 34.1961C62.9861 34.0475 62.8918 33.912 62.7703 33.7983C62.6487 33.6846 62.5025 33.595 62.341 33.5353C62.1794 33.4756 62.006 33.4471 61.8317 33.4515C61.6573 33.4471 61.4839 33.4756 61.3224 33.5353C61.1608 33.595 61.0146 33.6846 60.8931 33.7983C60.7715 33.912 60.6772 34.0475 60.6162 34.1961C60.5551 34.3446 60.5287 34.5031 60.5384 34.6615C60.5286 34.82 60.555 34.9786 60.616 35.1273C60.6771 35.276 60.7714 35.4115 60.893 35.5253C61.0147 35.6392 61.161 35.7287 61.3226 35.7884C61.4843 35.8481 61.6579 35.8766 61.8323 35.8721C62.0066 35.8765 62.1801 35.848 62.3416 35.7883C62.5032 35.7286 62.6494 35.6391 62.7709 35.5253C62.8925 35.4116 62.9868 35.2761 63.0478 35.1276C63.1089 34.979 63.1353 34.8205 63.1256 34.6621" fill="#1A6D41"/>
<path d="M68.9737 34.5028H70.483V33.2356H71.0222V36.4383H70.483V34.9627H68.9737V36.4383H68.4351V33.2356H68.9737V34.5028Z" fill="#1A6D41"/>
<path d="M75.9939 34.5028H77.5032V33.2356H78.0425V36.4383H77.5032V34.9627H75.9939V36.4383H75.4553V33.2356H75.9939V34.5028Z" fill="#1A6D41"/>
<path d="M82.4236 33.2356H82.9622V34.5271H83.3632C83.681 34.5126 83.9939 34.6029 84.2444 34.7815C84.3522 34.8711 84.4376 34.9807 84.4949 35.1029C84.5522 35.225 84.5801 35.357 84.5766 35.4898C84.5796 35.6422 84.5412 35.793 84.4648 35.9287C84.3884 36.0644 84.2763 36.1808 84.1386 36.2677C83.9059 36.393 83.6378 36.4532 83.3677 36.4407H82.4236V33.2356ZM82.9622 35.9773H83.3418C83.4845 35.9773 84.0491 35.9773 84.0491 35.4921C84.0491 35.2619 83.9193 34.988 83.3522 34.988H82.9622V35.9773ZM85.4851 36.4383H84.9465V33.2356H85.4851V36.4383Z" fill="#1A6D41"/>
<path d="M91.8546 33.6966H90.4504V34.5082H91.8131V34.9691H90.4504V35.9773H91.8546V36.4383H89.9118V33.2356H91.8546V33.6966Z" fill="#1A6D41"/>
<path d="M105.481 33.9943C105.225 33.7678 104.883 33.6407 104.526 33.6401C104.351 33.6364 104.178 33.6658 104.017 33.7265C103.855 33.7871 103.709 33.8776 103.589 33.9923C103.468 34.1069 103.375 34.2432 103.315 34.3924C103.255 34.5416 103.23 34.7005 103.242 34.859C103.235 35.0158 103.264 35.1722 103.326 35.3186C103.388 35.465 103.482 35.5985 103.602 35.7108C103.722 35.8231 103.867 35.9119 104.026 35.9719C104.186 36.0319 104.357 36.0617 104.529 36.0596C104.887 36.0516 105.228 35.9191 105.481 35.6895V36.2703C105.188 36.4262 104.855 36.5089 104.516 36.5099C104.053 36.5172 103.605 36.3586 103.27 36.0684C103.085 35.9158 102.939 35.7286 102.842 35.5197C102.744 35.3108 102.698 35.0852 102.705 34.8584C102.698 34.6259 102.745 34.3947 102.842 34.1795C102.939 33.9642 103.084 33.7697 103.268 33.6083C103.438 33.4651 103.639 33.3544 103.857 33.2826C104.076 33.2108 104.308 33.1795 104.54 33.1904C104.871 33.1808 105.198 33.2609 105.479 33.4206L105.481 33.9943Z" fill="#1A6D41"/>
<path d="M112.101 34.3008L109.725 36.6004V33.2531H110.263V35.4193L112.638 33.1173V36.4563H112.1L112.101 34.3008Z" fill="#1A6D41"/>
<path d="M119.628 33.9943C119.372 33.7678 119.029 33.6407 118.672 33.6402C118.498 33.6365 118.324 33.6658 118.163 33.7265C118.002 33.7871 117.856 33.8776 117.735 33.9923C117.614 34.1069 117.521 34.2432 117.461 34.3924C117.402 34.5417 117.377 34.7006 117.388 34.859C117.382 35.0158 117.41 35.1722 117.472 35.3186C117.534 35.465 117.628 35.5985 117.749 35.7108C117.869 35.8231 118.013 35.9119 118.173 35.9719C118.332 36.0319 118.503 36.0617 118.676 36.0596C119.033 36.0517 119.374 35.9192 119.628 35.6895V36.2703C119.335 36.4262 119.001 36.5089 118.662 36.51C118.199 36.5177 117.751 36.3591 117.415 36.0684C117.23 35.916 117.084 35.7289 116.986 35.5201C116.889 35.3113 116.842 35.0858 116.85 34.859C116.843 34.6263 116.89 34.3948 116.987 34.1794C117.085 33.9641 117.23 33.7695 117.415 33.6083C117.586 33.4651 117.786 33.3543 118.004 33.2826C118.223 33.2108 118.455 33.1795 118.687 33.1904C119.018 33.1808 119.345 33.2609 119.626 33.4206L119.628 33.9943Z" fill="#1A6D41"/>
<path d="M124.851 33.6966V36.4383H124.312V33.6966H123.505V33.2356H125.659V33.6966H124.851Z" fill="#1A6D41"/>
<path d="M131.635 33.6966H130.231V34.5082H131.594V34.9691H130.231V35.9773H131.635V36.4383H129.693V33.2356H131.635V33.6966Z" fill="#1A6D41"/>
<path d="M135.778 36.442L136.517 32.9991L137.741 35.4864L138.974 32.9991L139.641 36.442H139.092L138.733 34.5119L137.709 36.5908L136.696 34.5054L136.327 36.442H135.778Z" fill="#1A6D41"/>
<path d="M143.942 33.2356H144.48V34.5271H144.881C145.199 34.5126 145.512 34.6029 145.763 34.7815C145.871 34.8711 145.956 34.9806 146.013 35.1028C146.071 35.225 146.099 35.3569 146.096 35.4898C146.099 35.6422 146.06 35.793 145.984 35.9287C145.907 36.0644 145.795 36.1808 145.658 36.2677C145.425 36.393 145.157 36.4532 144.887 36.4407H143.942V33.2356ZM144.48 35.9773H144.86C145.003 35.9773 145.567 35.9773 145.567 35.4921C145.567 35.2619 145.438 34.988 144.87 34.988H144.48V35.9773ZM147.003 36.4383H146.465V33.2356H147.003V36.4383Z" fill="#1A6D41"/>
</svg>