<svg width="50" height="50" xmlns="http://www.w3.org/2000/svg" fill="none">
 <title>cooler</title>
 <defs>
  <clipPath id="clip0_51_128">
   <rect width="50" height="50" fill="white" id="svg_1"/>
  </clipPath>
 </defs>
 <g>
  <title>Layer 1</title>
  <path id="svg_12" stroke-width="2" fill="none" d="m8.1138,49.24735l33.96858,0c4.02008,0 7.27899,-3.24505 7.27899,-7.24803l0,-33.82416c0,-4.00298 -3.2589,-7.24803 -7.27899,-7.24803l-33.96858,0c-4.02008,0 -7.27899,3.24505 -7.27899,7.24803l0,33.82416c0,4.00299 3.2589,7.24803 7.27899,7.24803z" stroke="#ffffff"/>
  <path stroke="null" d="m17.26814,5.49353c0,1.01486 -0.39239,1.40519 -1.17716,1.09292c-0.62782,-0.31226 -1.17716,-0.15613 -1.17716,0.31226c0,0.39033 0.54934,1.17099 1.17716,1.71745c0.7063,0.54646 1.17716,2.26391 1.17716,3.98136l0,3.04457l-2.66824,-1.32712c-1.56955,-0.70259 -2.90367,-2.02971 -3.1391,-3.12263c-0.47087,-1.79551 -2.04042,-2.57617 -2.04042,-0.93679c0,0.4684 -0.7063,0.62453 -1.56955,0.31226c-1.96194,-0.62453 -2.04042,0.2342 -0.23543,1.63938c0.86325,0.62453 1.02021,1.01486 0.47087,1.09292c-0.54934,0 -1.02021,0.39033 -1.02021,0.85872c0,0.54646 0.86325,0.70259 2.11889,0.4684c1.96194,-0.39033 6.51364,1.40519 6.51364,2.57617c0,1.17099 -4.5517,2.9665 -6.51364,2.57617c-1.25564,-0.2342 -2.11889,-0.07807 -2.11889,0.4684c0,0.4684 0.47087,0.85872 1.02021,0.85872c0.54934,0.07807 0.39239,0.4684 -0.39239,1.09292c-1.88346,1.40519 -1.80498,2.26391 0.15696,1.63938c0.86325,-0.31226 1.56955,-0.15613 1.56955,0.31226c0,1.63938 1.56955,0.85872 2.04042,-0.93679c0.23543,-1.09292 1.56955,-2.42004 3.1391,-3.12263l2.66824,-1.32712l0,3.04457c0,1.71745 -0.47087,3.4349 -1.17716,3.98136c-0.62782,0.54646 -1.17716,1.32712 -1.17716,1.71745c0,0.4684 0.54934,0.62453 1.17716,0.31226c0.78478,-0.31226 1.17716,0.07807 1.17716,1.09292c0,0.85872 0.39239,1.56132 0.78478,1.56132c0.47087,0 0.78478,-0.70259 0.78478,-1.56132c0,-1.01486 0.39239,-1.40519 1.17716,-1.09292c0.62782,0.31226 1.17716,0.15613 1.17716,-0.31226c0,-0.39033 -0.54934,-1.17099 -1.17716,-1.71745c-0.7063,-0.54646 -1.17716,-2.26391 -1.17716,-3.98136l0,-3.04457l2.66824,1.32712c1.56955,0.70259 2.90367,2.02971 3.1391,3.12263c0.47087,1.79551 2.04042,2.57617 2.04042,0.93679c0,-0.4684 0.7063,-0.62453 1.56955,-0.31226c1.96194,0.62453 2.04042,-0.2342 0.23543,-1.63938c-0.86325,-0.62453 -1.02021,-1.01486 -0.39239,-1.09292c0.47087,0 0.94173,-0.39033 0.94173,-0.85872c0,-0.54646 -0.86325,-0.70259 -2.11889,-0.4684c-1.96194,0.39033 -6.51364,-1.40519 -6.51364,-2.57617c0,-1.24905 4.5517,-2.9665 6.67059,-2.49811c2.11889,0.39033 2.27585,0.31226 1.25564,-0.85872c-0.86325,-1.09292 -0.86325,-1.40519 0.23543,-1.79551c1.80498,-0.70259 1.56955,-2.10778 -0.31391,-1.48325c-0.86325,0.31226 -1.56955,0.15613 -1.56955,-0.31226c0,-1.63938 -1.56955,-0.85872 -2.04042,0.93679c-0.23543,1.09292 -1.56955,2.42004 -3.1391,3.12263l-2.66824,1.32712l0,-3.04457c0,-1.71745 0.47087,-3.4349 1.17716,-3.98136c0.62782,-0.54646 1.17716,-1.32712 1.17716,-1.71745c0,-0.4684 -0.54934,-0.62453 -1.17716,-0.31226c-0.78478,0.31226 -1.17716,-0.07807 -1.17716,-1.09292c0,-0.85872 -0.31391,-1.56132 -0.78478,-1.56132c-0.39239,0 -0.78478,0.70259 -0.78478,1.56132z" fill="#ffffff" id="svg_4"/>
  <text transform="matrix(1.57076 0 0 1 -15.6234 0)" stroke="null" font-weight="bold" xml:space="preserve" text-anchor="start" font-family="'Assistant'" font-size="24" stroke-width="0" id="svg_2" y="44.83048" x="25.43061" fill="#ffffff">F</text>
 </g>
</svg>
