<svg width="50" height="50" xmlns="http://www.w3.org/2000/svg" fill="none">
 <title>fan</title>
 <g>
  <title>Layer 1</title>
  <path stroke="#000000" d="m8.0608,49.456l33.76834,0c3.99638,0 7.23608,-3.2642 7.23608,-7.2908l0,-34.02375c0,-4.02661 -3.23969,-7.2908 -7.23608,-7.2908l-33.76834,0c-3.99638,0 -7.23608,3.2642 -7.23608,7.2908l0,34.02375c0,4.02661 3.23969,7.2908 7.23608,7.2908z" fill="none" stroke-width="2" id="svg_2"/>
  <path id="svg_1" fill="#000000" d="m14.6539,4.66319c-2.25,0.35 -3.92,1.27 -5.64998,3.1c-1.48,1.56 -2.49,3.27001 -3.07,5.18001c-0.24,0.81 -0.27,1.06 -0.27,2.5c-0.01,1.26 0.03,1.76 0.18,2.35c1.06,4.17 4.48998,7.31 8.78998,8.06c1.23,0.22 3.41,0.14 4.47,-0.15c0.57,-0.15 0.76,-0.17 0.82,-0.08c0.35,0.55 -0.46,2.62 -1.42,3.58c-0.73,0.74 -1.28,0.93 -2.54,0.87c-1.04,-0.05 -1.52,-0.23 -2.85,-1.08c-1.01,-0.65 -1.51,-0.8 -2.63,-0.8c-1.02998,0 -2.09998,0.3 -2.89998,0.81c-1.5,0.96 -2.79,3.25 -2.95,5.19c-0.1,1.3 0.44,3.31 1.23,4.62c0.52,0.85 2.35,2.72 3.42,3.48c3.38998,2.41 7.16998,2.79 10.66998,1.05c2.9,-1.43 4.95,-4.03 5.77,-7.3c0.32,-1.29 0.32,-3.83 0,-5.02c-0.12,-0.45 -0.22,-0.84 -0.22,-0.87c0,-0.02 0.19,-0.08 0.43,-0.11c0.91,-0.14 2.98,0.94 3.63,1.88c0.46,0.66 0.57,1.16 0.52,2.17c-0.06,0.99 -0.22,1.42 -1.03,2.7c-0.75,1.19 -0.88,1.57 -0.88,2.65c-0.02,2.61 1.62,4.65 4.48,5.61c1.88,0.63 4.08,0.31 6.1,-0.88c0.95,-0.56 3.02,-2.64 3.8,-3.81c1.18,-1.79 1.75,-3.52 1.82,-5.52c0.11,-2.96 -0.87,-5.36 -3.06,-7.56c-1.56,-1.55 -3.01,-2.38 -5.2,-2.97c-0.83,-0.21 -1.18,-0.25 -2.56,-0.26c-1.35,0 -1.74,0.03 -2.49,0.22c-0.71,0.18 -0.91,0.2 -0.98,0.1c-0.34,-0.55 0.5,-2.65 1.44,-3.59c0.68,-0.68 1.38,-0.93 2.48,-0.86c1,0.05 1.44,0.21 2.62,0.94c1.2,0.74 1.64,0.92 2.45,0.99c1.27,0.12 2.8,-0.37 3.89,-1.24c0.31,-0.24 0.74,-0.75 1.06,-1.24c1.38,-2.11 1.67,-3.81 1.03,-6.02c-0.49,-1.68 -1.34,-2.99 -2.9,-4.44001c-2.9,-2.7 -6.25,-3.79 -9.58,-3.11c-2.17,0.44 -3.9,1.41 -5.53,3.1c-1.9,1.99001 -2.91,4.40001 -3.01,7.24001c-0.05,1.34 0.07,2.33 0.42,3.52c0.06,0.19 0.02,0.22 -0.39,0.28c-0.88,0.14 -2.69,-0.72 -3.48,-1.65c-0.48,-0.55 -0.68,-1.16 -0.68,-2.06c0,-0.96 0.25,-1.74 0.93,-2.81c0.76,-1.21 0.84,-1.4 0.97,-2.16c0.2,-1.11 -0.14,-2.64001 -0.8,-3.68001c-0.71,-1.1 -2.19,-2.15 -3.72,-2.64c-0.76,-0.24 -2.03,-0.38 -2.63,-0.28l0,0zm1.97,2.23c1.21,0.37 2.51,1.4 2.9,2.28c0.11,0.27 0.22,0.79 0.25,1.22001l0.05,0.75l-0.58,0.95c-0.31,0.52 -0.7,1.22 -0.84,1.55c-1.27,2.83 -0.34,5.86 2.21,7.29l0.67,0.37l-0.43,0.64c-0.24,0.35 -0.49,0.8 -0.56,1c-0.12,0.33 -0.19,0.37 -0.89,0.59c-2.33,0.74 -4.74,0.55 -6.95,-0.54c-1.74,-0.87 -3.02998,-2.12 -3.89998,-3.81c-1.83,-3.55 -0.9,-7.41 2.57998,-10.64001c1.66,-1.54 3.78,-2.18 5.49,-1.65l0,0zm19.92,1.05c1.76,0.51 3.39,1.56 4.84,3.11001c1.34,1.42 1.98,2.99 1.9,4.61c-0.04,0.72 -0.1,0.93 -0.47,1.68c-0.83,1.67 -1.9,2.45 -3.38,2.45c-0.54,0 -0.68,-0.05 -1.44,-0.51c-1.6,-0.96 -2.26,-1.23 -3.46,-1.38c-2.29,-0.29 -4.25,0.69 -5.44,2.7l-0.41,0.69l-0.38,-0.3c-0.21,-0.16 -0.65,-0.43 -0.98,-0.6c-0.67,-0.33 -0.78,-0.51 -1.06,-1.8c-0.7,-3.12 0.26,-6.38 2.53,-8.59c0.75,-0.72001 1.85,-1.43001 2.79,-1.80001c0.67,-0.25 1.01,-0.34 2.22,-0.55c0.54,-0.1 1.92,0.05 2.74,0.29zm-10.74,14.11001c1.21,0.27 1.86,0.94 2.16,2.21c0.36,1.58 -0.41,3.12 -1.81,3.6c-0.64,0.23 -1.85,0.22 -2.39,-0.01c-1.67,-0.7 -2.31,-2.69 -1.42,-4.39c0.4,-0.78 0.88,-1.16 1.74,-1.38c0.84,-0.22 0.88,-0.22 1.72,-0.03zm8.49,4.04c1.23,0.13 1.98,0.33 2.97,0.8c2.44,1.13 4.05,2.97 4.8,5.47c0.37,1.22 0.39,2.91 0.06,4.08c-0.3,1.05 -0.99,2.44 -1.61,3.26c-0.87,1.14 -2.4,2.53 -3.23,2.93c-1.99,0.95 -3.55,0.92 -5.12,-0.08c-1.42,-0.91 -1.9,-1.67 -1.91,-3.01l0,-0.8l0.61,-1c0.33,-0.55 0.72,-1.29 0.87,-1.65c0.32,-0.83 0.51,-2.06 0.42,-2.85c-0.18,-1.76 -1.33,-3.44 -2.85,-4.2c-0.61,-0.31 -0.62,-0.32 -0.26,-0.83c0.19,-0.26 0.45,-0.7 0.6,-0.99c0.22,-0.45 0.31,-0.53 0.73,-0.67c0.87,-0.28 1.37,-0.38 2.13,-0.46c0.41,-0.04 0.77,-0.08 0.8,-0.08c0.03,-0.01 0.47,0.03 0.99,0.08zm-11.61,3.5l0.61,0.3l0.25,0.8c1.24,3.9 -0.35,8.31 -3.74,10.42c-2.88,1.8 -6.16,1.67 -9.15,-0.35c-0.80998,-0.55 -2.46998,-2.18 -2.93998,-2.89c-0.83,-1.23 -1.22,-3.21 -0.88,-4.39c0.23,-0.75 0.82,-1.73 1.44,-2.35c0.42,-0.43 0.65,-0.57 1.19,-0.74c1.22998,-0.38 1.50998,-0.32 3.12998,0.68c3.18,1.95 6.72,1.23 8.35,-1.71l0.38,-0.67l0.38,0.3c0.21,0.16 0.65,0.43 0.98,0.6z"/>
 </g>
</svg>
