<svg width="50" height="50" xmlns="http://www.w3.org/2000/svg" fill="none">
 <title>cooler</title>
 <defs>
  <clipPath id="clip0_51_128">
   <rect id="svg_1" fill="white" height="50" width="50"/>
  </clipPath>
 </defs>
 <g>
  <title>Layer 1</title>
  <path stroke="#ffffff" d="m8.1138,48.88038l33.96858,0c4.02008,0 7.27899,-3.24505 7.27899,-7.24803l0,-33.82416c0,-4.00298 -3.2589,-7.24803 -7.27899,-7.24803l-33.96858,0c-4.02008,0 -7.27899,3.24505 -7.27899,7.24803l0,33.82416c0,4.00299 3.2589,7.24803 7.27899,7.24803z" fill="none" stroke-width="2" id="svg_12"/>
  <path id="svg_11" d="m-33.03105,10.84884l0.745,-1.30375l0.745,1.30375l-1.49,0z" stroke-width="2" stroke="#ffffff" fill="none"/>
  <path id="svg_13" d="m-45.77595,43.27008l0.745,-1.30375l0.745,1.30375l-1.49,0z" stroke-width="2" stroke="#ffffff" fill="none"/>
  <path id="svg_14" d="m-62.54556,32.09034l0.745,-1.30375l0.745,1.30375l-1.49,0z" stroke-width="2" stroke="#ffffff" fill="none"/>
  <g stroke="null" id="svg_24">
   <path stroke="#ffffff" id="svg_20" d="m11.80078,3.18068l26.94008,2.63726l-0.0069,8.76878l-26.94422,2.62401l0.01104,-14.03004z" stroke-width="2" fill="none"/>
   <path stroke="#ffffff" id="svg_22" d="m11.80075,17.73353l26.94009,2.63725l-0.0069,8.76878l-26.94423,2.62401l0.01104,-14.03004z" stroke-width="2" fill="none"/>
   <path stroke="#ffffff" id="svg_23" d="m11.80078,32.4639l26.94009,2.63725l-0.0069,8.76878l-26.94423,2.62401l0.01104,-14.03004z" stroke-width="2" fill="none"/>
  </g>
 </g>
</svg>
