<svg width="50" height="50" xmlns="http://www.w3.org/2000/svg" xml:space="preserve" version="1.1">

 <g>
  <title>Layer 1</title>
  <g stroke="null" id="svg_1">
   <path stroke="null" id="svg_2" fill="#030104" d="m25.05854,20.09605c-1.71148,0.01237 -3.10447,-1.36671 -3.11684,-3.07201c-0.01391,-1.71148 1.35898,-3.10293 3.07201,-3.11684c0.25664,-0.00155 0.50092,0.03556 0.73901,0.09276c1.78724,-1.39918 4.12332,-3.22352 4.38924,-3.41368c0.46072,-0.32622 0.98947,-0.36487 1.36516,0.01082c0.37105,0.38342 0.3324,0.96319 -0.01546,1.3698c-0.11905,0.14069 -2.00214,2.5077 -3.44615,4.32586c0.05257,0.22109 0.08658,0.4499 0.08812,0.68645c0.01391,1.70375 -1.36207,3.10447 -3.0751,3.11684zm-20.12033,15.45743c0,-0.85497 0.69263,-1.54605 1.54605,-1.54605l13.91447,0l0,-3.90378c-5.39572,-1.91556 -9.27632,-7.05773 -9.27632,-13.1028c0,-7.67151 6.24296,-13.91447 13.91447,-13.91447c7.67306,0 13.91447,6.24296 13.91447,13.91447c0,6.04507 -3.88059,11.18724 -9.27632,13.1028l0,3.90378l13.91447,0c0.85497,0 1.54605,0.69109 1.54605,1.54605s-0.69109,1.54605 -1.54605,1.54605l-37.10526,0c-0.85342,0 -1.54605,-0.69109 -1.54605,-1.54605zm20.09868,-9.27632c5.11589,0 9.27632,-4.16043 9.27632,-9.27632s-4.16043,-9.27632 -9.27632,-9.27632s-9.27632,4.16043 -9.27632,9.27632s4.16043,9.27632 9.27632,9.27632zm18.55263,13.91447l-37.10526,0c-0.85342,0 -1.54605,0.69109 -1.54605,1.54605s0.69263,1.54605 1.54605,1.54605l37.10526,0c0.85497,0 1.54605,-0.69109 1.54605,-1.54605s-0.69109,-1.54605 -1.54605,-1.54605z"/>
  </g>
  <g id="svg_3"/>
  <g id="svg_4"/>
  <g id="svg_5"/>
  <g id="svg_6"/>
  <g id="svg_7"/>
  <g id="svg_8"/>
  <g id="svg_9"/>
  <g id="svg_10"/>
  <g id="svg_11"/>
  <g id="svg_12"/>
  <g id="svg_13"/>
  <g id="svg_14"/>
  <g id="svg_15"/>
  <g id="svg_16"/>
  <g id="svg_17"/>
  <path stroke="#000000" d="m8.23648,49.20961l33.96858,0c4.02008,0 7.27899,-3.24505 7.27899,-7.24803l0,-33.82416c0,-4.00298 -3.2589,-7.24803 -7.27899,-7.24803l-33.96858,0c-4.02008,0 -7.27899,3.24505 -7.27899,7.24803l0,33.82416c0,4.00299 3.2589,7.24803 7.27899,7.24803z" fill="none" stroke-width="2" id="svg_18"/>
 </g>
</svg>