<svg width="150" height="200" xmlns="http://www.w3.org/2000/svg">
 <title>valve</title>

 <g>
  <title>Layer 1</title>
  <rect fill="none" stroke-width="2" x="1.03094" y="1.23461" width="147.79527" height="197.81651" id="svg_35" stroke="#000000"/>
  <path stroke="null" id="svg_2" fill="#000000" d="m46.70367,137.91347c1.16282,0.73059 2.36269,1.41617 3.60581,2.0692c1.23771,0.62949 2.49936,1.23196 3.80502,1.77835c6.30437,2.63775 13.33609,4.12109 20.76622,4.13217c27.13931,-0.01662 49.11775,-19.72874 49.12393,-44.06955c0,-14.93938 -8.28178,-28.12119 -20.9523,-36.09606l-11.52701,14.76625c1.38596,0.87532 2.68003,1.84067 3.87373,2.91129c5.27822,4.73949 8.50492,11.19709 8.51187,18.41852c-0.00618,7.22143 -3.23287,13.66725 -8.51187,18.41298c-5.279,4.72287 -12.47903,7.62239 -20.51836,7.62239c-4.40804,0 -8.55511,-0.88086 -12.27288,-2.43138c-0.77753,-0.3234 -1.5234,-0.6745 -2.24533,-1.05953c-0.73969,-0.37949 -1.4485,-0.79222 -2.12642,-1.22158c-1.39214,-0.86978 -2.68544,-1.84552 -3.89149,-2.91059c-5.26587,-4.74573 -8.49952,-11.19224 -8.49952,-18.41298c0,-7.22143 3.23365,-13.67902 8.49952,-18.41852c3.51856,-3.15089 7.89572,-5.48186 12.81413,-6.69166l0,7.76781l19.51075,-17.71009l-19.51075,-17.71632l0,9.24077c-23.47096,3.32886 -41.40812,21.54171 -41.41507,43.52939c0.00772,14.92622 8.2895,28.12049 20.96002,36.08913z" class="st0"/>
 </g>
</svg>