<svg width="50" height="50" xmlns="http://www.w3.org/2000/svg" fill="none">
 <defs>
  <clipPath id="clip0_51_132">
   <rect id="svg_1" fill="white" height="50" width="50"/>
  </clipPath>
 </defs>
 <g>
  <title>Layer 1</title>
  <g transform="rotate(179.992 24.9888 24.9478)" id="svg_2" clip-path="url(#clip0_51_132)">
   <path id="svg_3" fill="#000000" d="m3.24188,0.25107c-0.82318,0.34519 -1.20935,0.61716 -1.78862,1.24477c-0.58943,0.63807 -0.97561,1.37029 -1.19919,2.23849c-0.23374,0.89958 -0.23374,41.42257 0,42.32217c0.45732,1.8096 1.80894,3.2113 3.55691,3.682c0.52846,0.136 3.02846,0.1569 21.18902,0.1569c22.4492,0 21.0874,0.0314 22.2764,-0.5858c0.7216,-0.3765 1.6159,-1.2866 2.0021,-2.0188c0.6605,-1.2866 0.6199,0.2511 0.6199,-22.3954c0,-22.64643 0.0406,-21.10876 -0.6199,-22.39538c-0.4269,-0.8159 -1.3415,-1.69456 -2.1952,-2.11297l-0.691,-0.33472l-21.2907,-0.02093l-21.29062,-0.03138l-0.5691,0.25105zm42.62192,2.32218c0.2643,0.09414 0.6504,0.34518 0.874,0.57531c0.7825,0.80544 0.7216,-0.98327 0.7216,21.74684c0,22.7301 0.0609,20.9414 -0.7216,21.7469c-0.7825,0.8054 1.0264,0.7427 -21.7378,0.7427c-22.76422,0 -20.95528,0.0627 -21.7378,-0.7427c-0.78252,-0.8055 -0.72154,0.9832 -0.72154,-21.7469c0,-22.74057 -0.06098,-20.9414 0.72154,-21.74684c0.7622,-0.78452 -1.02642,-0.72176 21.6972,-0.73222c18.3739,-0.01046 20.4776,0.01046 20.9044,0.15691z"/>
   <path id="svg_4" fill="#000000" d="m4.77643,5.71131c0,0.0523 0.07114,0.54394 0.1626,1.08787c0.0813,0.54393 0.28455,1.95607 0.45732,3.13807c0.27439,1.96655 0.75203,5.26155 1.67682,11.54815c0.19309,1.3284 0.36586,2.4163 0.37602,2.4268c0.01016,0.0104 0.88415,-0.8264 1.9309,-1.862l1.91061,-1.8933l0.8638,0.8787c0.4675,0.4812 0.8333,0.9309 0.813,0.9937c-0.0305,0.0732 0.5488,0.7008 1.2805,1.4121l1.3211,1.2762l0.5488,-0.3034c0.3658,-0.1987 0.691,-0.4811 0.9248,-0.8159l0.3658,-0.523l-0.2439,-0.1987c-0.1321,-0.1046 -0.4065,-0.2929 -0.5996,-0.4184c-0.193,-0.1255 -0.5386,-0.5335 -0.7622,-0.8996c-0.254,-0.4184 -1.1991,-1.5063 -2.4593,-2.8243l-2.0528,-2.1548l-1.057,1.0774c-0.97557,0.9937 -1.06703,1.067 -1.11784,0.8368c-0.15244,-0.638 -1.4126,-9.71753 -1.36179,-9.76983c0.05081,-0.05231 9.24793,1.43303 9.65443,1.55853c0.0407,0.0105 -0.376,0.4917 -0.9349,1.0565l-1.0163,1.0356l1.3923,1.5063c0.7622,0.8263 1.4837,1.5272 1.6057,1.5585c0.1931,0.0523 0.4776,0.3243 1.3415,1.318c0.0406,0.0523 0.315,0.272 0.6097,0.5126c0.3455,0.272 0.6098,0.5858 0.7216,0.8577c0.1016,0.2406 0.2947,0.544 0.4369,0.6695l0.2439,0.2301l0.498,-0.659c0.2846,-0.3661 0.6606,-0.7636 0.8537,-0.8996l0.3353,-0.2301l-2.2662,-2.3431c-1.25,-1.2866 -2.2866,-2.3849 -2.3069,-2.4372c-0.0102,-0.0419 0.7927,-0.8996 1.8089,-1.8933c1.0061,-0.99375 1.8293,-1.84103 1.8293,-1.88288c0,-0.06276 -1.311,-0.29288 -12.1951,-2.13389c-5.6911,-0.96234 -5.58947,-0.94142 -5.58947,-0.83682z"/>
   <path id="svg_5" fill="#000000" d="m45.5285,5.77409c-0.2541,0.04184 -1.372,0.23013 -2.4898,0.40795c-1.1179,0.17782 -3.0387,0.48117 -4.2683,0.67992c-1.2297,0.19874 -4.0651,0.64853 -6.3009,1.00418c-2.2357,0.34519 -4.0853,0.659 -4.1158,0.67991c-0.0203,0.02093 0.8028,0.91005 1.8293,1.96655l1.88,1.9351l-1.7276,1.7992c-0.9553,0.9937 -2.4187,2.5523 -3.2419,3.4623c-0.8333,0.9101 -1.7784,1.841 -2.1036,2.0712c-0.3252,0.2196 -0.6199,0.5021 -0.6504,0.6276c-0.0407,0.115 -1.0773,1.2761 -2.3171,2.5837c-1.2398,1.3075 -2.5915,2.7824 -2.9878,3.2845c-0.4065,0.4916 -0.8842,1.0042 -1.0671,1.1297c-0.1829,0.1255 -2.378,2.3535 -4.8882,4.9477l-4.54268,4.728l3.83128,3.8912l3.8415,3.9017l4.7053,-4.9163c2.5914,-2.7092 4.7459,-4.8954 4.7866,-4.8745c0.0406,0.0314 0.2235,-0.1987 0.3963,-0.5125c0.1829,-0.3138 0.4573,-0.659 0.6098,-0.7741c0.6097,-0.4498 5.254,-5.3661 5.752,-6.0879c0.3557,-0.523 0.6504,-0.8472 0.9248,-0.9832c0.4573,-0.2406 5.2236,-5.1674 5.1727,-5.3348c-0.0304,-0.0627 0.183,-0.3451 0.4675,-0.6276l0.5082,-0.523l1.8699,1.9247c1.6768,1.7259 1.8699,1.8933 1.9207,1.6736c0.0508,-0.1987 1.3618,-8.6924 1.7988,-11.6004c0.1118,-0.7636 0.5691,-3.72382 0.8028,-5.26148c0.1017,-0.67992 0.1525,-1.24477 0.122,-1.26569c-0.0305,-0.01046 -0.2642,0.01046 -0.5183,0.06276zm-2.3781,3.19038c-0.0304,0.16736 -0.1422,0.93096 -0.2642,1.70503c-0.1118,0.774 -0.2744,1.8305 -0.3557,2.3535c-0.0813,0.5126 -0.2642,1.7155 -0.4065,2.6674c-0.3862,2.5523 -0.4776,3.0335 -0.5488,3.0335c-0.0304,0 -0.4979,-0.4393 -1.0162,-0.9833l-0.9553,-0.9937l-1.2703,1.2238c-0.6911,0.6695 -1.3313,1.3599 -1.4126,1.5377c-0.0813,0.1674 -0.3964,0.5753 -0.7013,0.8891c-0.2947,0.3138 -2.5508,2.6674 -4.9898,5.2092c-2.9167,3.044 -4.624,4.8954 -4.939,5.3871c-0.6504,0.9937 -0.7927,1.1401 -1.7175,1.8096c-0.5284,0.387 -2.0224,1.8619 -4.5732,4.5397l-3.7906,3.9749l-2.1138,-2.1234l-2.124,-2.113l3.5975,-3.7866c1.9716,-2.092 3.8618,-4.1004 4.1972,-4.477c0.3354,-0.3765 0.7927,-0.8577 1.0163,-1.0774c0.6402,-0.6067 6.067,-6.1506 6.9309,-7.0816c0.4369,-0.4602 1.6768,-1.7782 2.7743,-2.9288c1.0976,-1.1507 2.6626,-2.8034 3.4858,-3.6611l1.4838,-1.5691l-1.0061,-1.1088c-0.9858,-1.0878 -1.0061,-1.1192 -0.7318,-1.1715c0.1525,-0.0314 1.6464,-0.27197 3.3232,-0.54394c1.6768,-0.27196 3.689,-0.59623 4.4716,-0.73221c1.8394,-0.31381 1.7073,-0.31381 1.6361,0.02092z"/>
   <path id="svg_6" fill="#000000" d="m35.2134,29.7385c-0.2541,0.4393 -1.0467,1.5167 -1.189,1.6004c-0.061,0.0419 1.1585,1.3703 2.8049,3.0649l2.9065,2.9916l-2.0834,2.1443l-2.0833,2.1444l-2.7744,-2.8556c-1.5142,-1.5586 -2.8049,-2.8452 -2.8455,-2.8452c-0.1118,0 -1.7988,1.4853 -1.7988,1.5795c0,0.0418 1.6768,1.7782 3.7398,3.8598l3.7297,3.7971l3.7805,-3.9645l3.7906,-3.9644l-0.2337,-0.2197c-0.1219,-0.115 -1.8699,-1.8933 -3.8821,-3.9435l-3.6687,-3.7238l-0.1931,0.3347z"/>
  </g>
 </g>
</svg>