<svg width="32" height="32" xmlns="http://www.w3.org/2000/svg" xml:space="preserve" enable-background="new 0 0 32 32" version="1.1">
 <g>
  <title>Layer 1</title>
  <path stroke="null" id="svg_1" d="m-0.48193,0.10843l0,32.02409l32.72289,0l0,-32.02409l-32.72289,0zm24.54217,2.46339l0,4.92678l-16.36145,0l0,-4.92678l16.36145,0zm-22.49699,0l4.09036,0l0,4.92678l-4.09036,0l0,-4.92678zm0,7.39018l13.29368,0l0,4.92678l-13.29368,0l0,-4.92678zm22.49699,12.31696l-16.36145,0l0,-4.92678l16.36145,0l0,4.92678zm-22.49699,-4.92678l4.09036,0l0,4.92678l-4.09036,0l0,-4.92678zm0,12.31696l0,-4.92678l13.29368,0l0,4.92678l-13.29368,0zm28.63253,0l-13.29368,0l0,-4.92678l13.29368,0l0,4.92678zm0,-7.39018l-4.09036,0l0,-4.92678l4.09036,0l0,4.92678zm0,-7.39018l-13.29368,0l0,-4.92678l13.29368,0l0,4.92678zm0,-7.39018l-4.09036,0l0,-4.92678l4.09036,0l0,4.92678z"/>
 </g>
</svg>
